<?xml version="1.0" encoding="utf-8"?>
<!-- Generator: Adobe Illustrator 18.0.0, SVG Export Plug-In . SVG Version: 6.00 Build 0)  -->
<!DOCTYPE svg PUBLIC "-//W3C//DTD SVG 1.1//EN" "http://www.w3.org/Graphics/SVG/1.1/DTD/svg11.dtd">
<svg version="1.1" id="Capa_1" xmlns="http://www.w3.org/2000/svg" xmlns:xlink="http://www.w3.org/1999/xlink" x="0px" y="0px"
	 viewBox="299.6 384.1 12.6 19.1" enable-background="new 299.6 384.1 12.6 19.1" xml:space="preserve">
<g>
	<g>
		<path fill="#F98321" stroke="#F58223" stroke-width="0.5" stroke-miterlimit="10" d="M305.5,402.1c0.1,0.1,0.4,0.3,0.5,0.3
			c0.1,0,0.4-0.1,0.5-0.3l4.7-4.7c0.3-0.3,0.3-0.8,0-1c-0.3-0.3-0.8-0.3-1,0l-3.5,3.5v-15.1c0-0.4-0.4-0.8-0.8-0.8
			c-0.4,0-0.8,0.4-0.8,0.8v15.1l-3.5-3.5c-0.3-0.3-0.8-0.3-1,0c-0.3,0.3-0.3,0.8,0,1L305.5,402.1z"/>
	</g>
</g>
</svg>
