<?xml version="1.0" encoding="utf-8"?>
<!-- Generator: Adobe Illustrator 18.0.0, SVG Export Plug-In . SVG Version: 6.00 Build 0)  -->
<!DOCTYPE svg PUBLIC "-//W3C//DTD SVG 1.1//EN" "http://www.w3.org/Graphics/SVG/1.1/DTD/svg11.dtd">
<svg version="1.1" id="Capa_1" xmlns="http://www.w3.org/2000/svg" xmlns:xlink="http://www.w3.org/1999/xlink" x="0px" y="0px"
	 viewBox="0 0 410 410" enable-background="new 0 0 410 410" xml:space="preserve">
<g>
	<g>
		<path fill="#F98321" stroke="#F58223" stroke-width="0.5" stroke-miterlimit="10" d="M205.4,306.4c1.9,2.2,5.6,4.4,7.5,4.4
			s5.6-2.2,7.5-4.4l67.5-78.6c3.8-4.4,3.8-13.1,0-17.5c-3.8-4.4-11.3-4.4-15,0l-50.7,58.9V16.1c0-6.5-5.6-13.1-11.3-13.1
			c-5.6,0-11.3,6.5-11.3,13.1v253.2l-50.7-58.9c-3.8-4.4-11.3-4.4-15,0c-3.8,4.4-3.8,13.1,0,17.5L205.4,306.4z"/>
	</g>
</g>
</svg>
