<?xml version="1.0" encoding="utf-8"?>
<!-- Generator: Adobe Illustrator 18.0.0, SVG Export Plug-In . SVG Version: 6.00 Build 0)  -->
<!DOCTYPE svg PUBLIC "-//W3C//DTD SVG 1.1//EN" "http://www.w3.org/Graphics/SVG/1.1/DTD/svg11.dtd">
<svg version="1.1" id="Capa_1" xmlns="http://www.w3.org/2000/svg" xmlns:xlink="http://www.w3.org/1999/xlink" x="0px" y="0px"
	 viewBox="0 0 410 410" enable-background="new 0 0 410 410" xml:space="preserve">
<path fill="#f98321" d="M354.3,5H103.1l0,0c-4.7,0-8.1,1.2-11.6,2.3s-5.8,3.5-9.3,5.8l0,0c-5.8,5.8-9.3,12.8-9.3,20.9
	c0,1.2,0,2.3,0,2.3c0-1.2,0-1.2,0-2.3v8.1H67c-14,0-24.4,10.5-24.4,24.4S53,91.1,67,91.1h5.8V112H67c-14,0-24.4,10.5-24.4,24.4
	S53,160.9,67,160.9h5.8v20.9H67c-14,0-24.4,10.5-24.4,24.4S53,230.6,67,230.6h5.8v20.9H67c-14,0-24.4,10.5-24.4,24.4
	S53,300.4,67,300.4h5.8v20.9H67c-14,0-24.4,10.5-24.4,24.4c0,14,10.5,24.4,24.4,24.4h5.8v8.1c0-1.2,0-1.2,0-2.3c0,1.2,0,2.3,0,2.3
	c0,8.1,3.5,16.3,9.3,20.9l0,0c2.3,2.3,4.7,3.5,8.1,5.8c0,0,0,0,1.2,0l0,0c3.5,1.2,7,2.3,11.6,2.3h251.2c16.3,0,29.1-12.8,29.1-29.1
	V28.3C382.2,17.8,369.4,5,354.3,5z M68.2,74.8c-3.5,0-7-3.5-7-7c0-3.5,3.5-7,7-7h29.1c3.5,0,7,3.5,7,7s-3.5,7-7,7H68.2z M68.2,145.7
	c-3.5,0-7-3.5-7-7c0-3.5,3.5-7,7-7h29.1c3.5,0,7,3.5,7,7s-3.5,7-7,7H68.2z M68.2,215.5c-3.5,0-7-3.5-7-7c0-3.5,3.5-7,7-7h29.1
	c3.5,0,7,3.5,7,7c0,3.5-3.5,7-7,7H68.2z M68.2,286.5c-3.5,0-7-3.5-7-7c0-3.5,3.5-7,7-7h29.1c3.5,0,7,3.5,7,7c0,3.5-3.5,7-7,7H68.2z
	 M68.2,356.3c-3.5,0-7-3.5-7-7c0-3.5,3.5-7,7-7h29.1c3.5,0,7,3.5,7,7c0,3.5-3.5,7-7,7H68.2z M364.8,384.2c0,5.8-4.7,11.6-11.6,11.6
	H101.9c-5.8,0-11.6-4.7-11.6-11.6v-3.5v-7h5.8c14,0,24.4-10.5,24.4-24.4s-10.5-24.4-24.4-24.4h-5.8v-20.9h5.8
	c14,0,24.4-10.5,24.4-24.4s-10.5-24.4-24.4-24.4h-5.8v-20.9h5.8c14,0,24.4-10.5,24.4-24.4s-10.5-24.4-24.4-24.4h-5.8v-20.9h5.8
	c14,0,24.4-10.5,24.4-24.4s-10.5-24.4-24.4-24.4h-5.8V94.6h5.8c14,0,24.4-10.5,24.4-24.4S110,45.7,96.1,45.7h-5.8v-8.1v-3.5
	c0-5.8,4.7-11.6,11.6-11.6h251.2c5.8,0,11.6,4.7,11.6,11.6V384.2z"/>
<path fill="#f98321" d="M256.6,228.3h-40.7c2.3-3.5,4.7-7,5.8-10.5c1.2-4.7,2.3-8.1,3.5-12.8c1.2-4.7,1.2-9.3,1.2-12.8
	c0-4.7,0-23.3,0-26.8v-7h30.2V228.3L256.6,228.3z M297.3,231.8c0-2.3-1.2-3.5-3.5-3.5l0,0h-7v-83.7l0,0v-5.8l0,0l0,0
	c0-2.3-1.2-3.5-3.5-3.5H217c-2.3,0-3.5,0-5.8,0c-1.2,0-3.5,0-4.7,0s-2.3,1.2-3.5,2.3c-1.2,1.2-1.2,2.3-1.2,4.7v9.3c0,3.5,0,7,0,10.5
	c0,3.5,0,23.3-1.2,26.8c0,3.5-1.2,8.1-1.2,11.6c-1.2,3.5-1.2,7-2.3,11.6c-1.2,3.5-2.3,7-4.7,9.3c-1.2,2.3-3.5,4.7-4.7,5.8
	c-1.2,1.2-2.3,1.2-3.5,1.2c-1.2,0-2.3,0-2.3,1.2c-1.2,1.2-1.2,2.3-1.2,4.7v32.6l0,0l0,0c0,2.3,1.2,3.5,3.5,3.5l0,0h22.1
	c2.3,0,3.5-1.2,3.5-3.5l0,0l0,0l0,0v-15.1h60.5v8.1l0,0v5.8l0,0l0,0c0,2.3,1.2,3.5,3.5,3.5l0,0h22.1c2.3,0,3.5-1.2,3.5-3.5l0,0l0,0
	l0,0L297.3,231.8L297.3,231.8L297.3,231.8L297.3,231.8z"/>
</svg>
