<?xml version="1.0" encoding="utf-8"?>
<!-- Generator: Adobe Illustrator 18.0.0, SVG Export Plug-In . SVG Version: 6.00 Build 0)  -->
<!DOCTYPE svg PUBLIC "-//W3C//DTD SVG 1.1//EN" "http://www.w3.org/Graphics/SVG/1.1/DTD/svg11.dtd">
<svg version="1.1" id="Capa_1" xmlns="http://www.w3.org/2000/svg" xmlns:xlink="http://www.w3.org/1999/xlink" x="0px" y="0px"
	 viewBox="-105.9 -15.9 826.2 826.2" enable-background="new -105.9 -15.9 826.2 826.2" xml:space="preserve">
<g>
	<path fill="#020202" d="M562.6-15.9H49.4c-84.7,0-155.4,68.3-155.4,155.4v515.5c0,84.7,68.3,155.4,155.4,155.4h515.5
		c84.7,0,155.4-68.3,155.4-155.4V139.4C717.9,52.3,649.7-15.9,562.6-15.9z M541.4,426.6h-77.7v284.8H334.2V426.6h-49.4v-96.5h49.4
		v-58.8c0-80,33-127.1,127.1-127.1h96.5v96.5h-56.5c-37.7,0-40,14.1-40,40v54.1h87.1L541.4,426.6z"/>
</g>
</svg>
