<?xml version="1.0" encoding="utf-8"?>
<!-- Generator: Adobe Illustrator 18.0.0, SVG Export Plug-In . SVG Version: 6.00 Build 0)  -->
<!DOCTYPE svg PUBLIC "-//W3C//DTD SVG 1.1//EN" "http://www.w3.org/Graphics/SVG/1.1/DTD/svg11.dtd">
<svg version="1.1" id="Layer_1" xmlns="http://www.w3.org/2000/svg" xmlns:xlink="http://www.w3.org/1999/xlink" x="0px" y="0px"
	 viewBox="271 361 70 70" enable-background="new 271 361 70 70" xml:space="preserve">
<g>
	<g>
		<path fill="#FF8200" d="M285,402.3h-0.1c-0.6,0-1,0.5-1,1s0.5,1,1,1h0.1c0.6,0,1-0.5,1-1C286,402.8,285.6,402.3,285,402.3z"/>
	</g>
</g>
<g>
	<g>
		<path fill="#FF8200" d="M289.5,399.1h-0.2c-0.6,0-1,0.5-1,1s0.5,1,1,1h0.1c0.6,0,1-0.5,1-1S290,399.1,289.5,399.1z"/>
	</g>
</g>
<g>
	<g>
		<path fill="#FF8200" d="M313.5,385.8L313.5,385.8c-0.5-0.5-1.1-0.5-1.6-0.1c-0.4,0.4-0.4,1.1,0,1.4l0.1,0.1
			c0.2,0.2,0.5,0.2,0.7,0.2s0.5-0.1,0.7-0.2C314,386.9,314,386.2,313.5,385.8z"/>
	</g>
</g>
<g>
	<g>
		<path fill="#FF8200" d="M309.3,384.2L309.3,384.2c-0.5-0.5-1.1-0.5-1.6-0.1c-0.4,0.4-0.4,1.1,0,1.4l0.1,0.1
			c0.2,0.2,0.5,0.2,0.7,0.2s0.5-0.1,0.7-0.2C309.8,385.1,309.8,384.5,309.3,384.2z"/>
	</g>
</g>
<g>
	<g>
		<path fill="#FF8200" d="M326.3,400.8h-0.1c-0.6,0-1,0.5-1,1s0.5,1,1,1h0.1c0.6,0,1-0.5,1-1S326.9,400.8,326.3,400.8z"/>
	</g>
</g>
<g>
	<g>
		<path fill="#FF8200" d="M297,394h-0.1c-0.6,0-1,0.5-1,1c0,0.6,0.5,1,1,1h0.1c0.6,0,1-0.5,1-1S297.5,394,297,394z"/>
	</g>
</g>
<g>
	<g>
		<path fill="#FF8200" d="M300,390.7h-0.1c-0.6,0-1,0.5-1,1c0,0.6,0.5,1,1,1h0.1c0.6,0,1-0.5,1-1C301.1,391.2,300.6,390.7,300,390.7
			z"/>
	</g>
</g>
<g>
	<g>
		<path fill="#FF8200" d="M305.4,401.9c-0.4-0.4-1.1-0.4-1.4,0l-0.1,0.1c-0.4,0.4-0.4,1.1,0,1.4c0.2,0.2,0.5,0.2,0.7,0.2
			c0.2,0,0.5-0.1,0.7-0.2l0.1-0.1C305.8,402.9,305.8,402.2,305.4,401.9z"/>
	</g>
</g>
<g>
	<g>
		<path fill="#FF8200" d="M315.8,395c-0.4-0.4-1.1-0.4-1.4,0l-0.1,0.1c-0.4,0.4-0.4,1.1,0,1.4c0.2,0.2,0.5,0.2,0.7,0.2
			s0.5-0.1,0.7-0.2l0.1-0.1C316.3,396.1,316.3,395.4,315.8,395z"/>
	</g>
</g>
<g>
	<g>
		<path fill="#FF8200" d="M307.4,397c-0.4-0.4-1.1-0.4-1.4,0l-0.1,0.1c-0.4,0.4-0.4,1.1,0,1.4c0.2,0.2,0.5,0.2,0.7,0.2
			s0.5-0.1,0.7-0.2l0.1-0.1C307.8,398,307.8,397.4,307.4,397z"/>
	</g>
</g>
<g>
	<g>
		<path fill="#FF8200" d="M310.1,400.2c-0.4-0.4-1.1-0.4-1.4,0l-0.1,0.1c-0.4,0.4-0.4,1.1,0,1.4c0.2,0.2,0.5,0.2,0.7,0.2
			s0.5-0.1,0.7-0.2l0.1-0.1C310.4,401.3,310.4,400.7,310.1,400.2z"/>
	</g>
</g>
<g>
	<g>
		<path fill="#FF8200" d="M311.6,395.3c-0.4-0.4-1.1-0.4-1.4,0l-0.1,0.1c-0.4,0.4-0.4,1.1,0,1.4c0.2,0.2,0.5,0.2,0.7,0.2
			s0.5-0.1,0.7-0.2l0.1-0.1C312,396.4,312,395.6,311.6,395.3z"/>
	</g>
</g>
<g>
	<g>
		<path fill="#FF8200" d="M336.6,405.4H335c0-0.5-0.5-1-1-1h-1.2l0.6-0.6h3.2c0.6,0,1-0.5,1-1c0-0.6-0.5-1-1-1h-1.2l1.3-1.3
			c0.4-0.4,0.4-1.1,0-1.4c-0.4-0.4-1.1-0.4-1.4,0l-1.3,1.3v-1.2c0-0.6-0.5-1-1-1c-0.6,0-1,0.5-1,1v2.7c-0.7-2.4-2.2-4.4-4.2-5.7
			c0-2-1.2-3.8-2.7-4.8l0.4-0.4c0.6,0.4,1.3,0.6,2,0.6c1,0,1.8-0.4,2.5-1.1c1.4-1.4,1.4-3.6,0-5c-0.5-0.5-1.2-0.8-1.9-1
			c-0.1-0.7-0.5-1.4-1-1.9c-0.7-0.7-1.6-1.1-2.5-1.1c-1,0-1.8,0.4-2.5,1.1c-1.2,1.2-1.3,3.1-0.5,4.5l-1.3,1.3
			c-0.4-1.6-1.2-3-2.3-4.3c0.5,0,1-0.5,1-1c0-0.6-0.5-1-1-1H317l0.6-0.6h3.2c0.6,0,1-0.5,1-1c0-0.6-0.5-1-1-1h-1.2l1.3-1.3
			c0.4-0.4,0.4-1.1,0-1.4c-0.4-0.4-1.1-0.4-1.4,0l-1.3,1.3v-1.2c0-0.6-0.5-1-1-1c-0.6,0-1,0.5-1,1v3.2l-0.6,0.6V380c0-0.6-0.5-1-1-1
			c-0.6,0-1,0.5-1,1v0.7c-1.9-1.1-4.1-1.6-6.1-1.6c-1.8,0-3.6,0.5-5,1.2l-1.4-1.1c-0.4-0.4-1.1-0.4-1.4,0c-0.4,0.4-0.4,1.1,0,1.4
			l0.6,0.6c-0.2,0.1-0.4,0.4-0.6,0.5c-0.1,0.1-0.4,0.4-0.5,0.6l-4.4-4.4c-0.2-0.2-0.5-0.4-0.8-0.2c-0.2,0-0.6,0.1-0.7,0.4l-0.1,0.1
			c-0.6,0.6-1.6,0.6-2.2,0s-0.6-1.6,0-2.2c0.4-0.4,0.8-0.5,1.3-0.5c0.4,0,0.6,0,0.8-0.2c0.2-0.2,0.4-0.6,0.2-0.8
			c-0.1-0.5,0.1-1,0.5-1.3c0.6-0.6,1.6-0.6,2.2,0c0.2,0.2,0.5,0.7,0.5,1.1s-0.1,0.8-0.5,1.1l-0.1,0.1c-0.2,0.1-0.4,0.5-0.4,0.7
			c0,0.2,0.1,0.6,0.2,0.8l1.8,1.8c0.4,0.4,1.1,0.4,1.4,0c0.4-0.4,0.4-1.1,0-1.4l-1.2-1.2c0.4-0.6,0.6-1.3,0.6-2c0-1-0.4-1.8-1.1-2.5
			c-0.7-0.7-1.6-1.1-2.5-1.1c-1,0-1.8,0.4-2.5,1.1c-0.5,0.5-0.8,1.2-1,1.9c-0.7,0.1-1.4,0.5-1.9,1c-0.7,0.7-1.1,1.6-1.1,2.5
			c0,1,0.4,1.8,1.1,2.5c1.2,1.2,3.1,1.3,4.5,0.5l4.1,4.1c-0.7,1.3-1.1,2.7-1.2,4.3c-1,0.4-1.8,1-2.5,1.6v-2c0-0.6-0.5-1-1-1
			c-0.5,0-1,0.5-1,1v1.2l-0.6-0.6v-3.2c0-0.6-0.5-1-1-1c-0.6,0-1,0.5-1,1v1.2l-1.3-1.3c-0.4-0.4-1.1-0.4-1.4,0
			c-0.4,0.4-0.4,1.1,0,1.4l1.3,1.3h-1.2c-0.6,0-1,0.5-1,1c0,0.6,0.5,1,1,1h3.2l0.6,0.6H290c-0.6,0-1,0.5-1,1s0.5,1,1,1h2.4
			c-0.5,0.8-0.8,1.7-1.1,2.6c-0.6-0.2-1.2-0.4-1.8-0.4c-1.3,0-2.6,0.5-3.6,1.4l-0.4,0.4c-0.7-0.4-1.7-0.6-2.5-0.6
			c-1.6,0-3,0.6-4.1,1.7s-1.7,2.5-1.7,4.1c0,1,0.2,1.8,0.6,2.6c-0.2,0.4-0.5,0.7-0.6,1.2h-1.8c-1.3,0-2.3,1.1-2.3,2.3
			c0,4.8,3.3,8.8,7.9,9.8v1.6c0,1.3,1.1,2.4,2.4,2.4h45.2c1.3,0,2.4-1.1,2.4-2.4v-1.4c4.5-1,7.9-5,7.9-9.8
			C338.9,406.5,337.8,405.4,336.6,405.4z M330.4,404.8c0,0.2,0,0.5,0,0.6H325c0-1.4-0.6-2.9-1.7-3.8c-0.2-0.2-0.5-0.4-0.7-0.5
			c0-0.6,0-1.2,0-1.8c0.1,0.1,0.4,0.2,0.7,0.2h0.1c0.6,0,1-0.5,1-1s-0.5-1-1-1h-0.1c-0.4,0-0.7,0.2-0.8,0.5
			c-0.1-0.5-0.2-0.8-0.4-1.3c0.1,0,0.2,0,0.4,0C326.7,396.7,330.4,400.4,330.4,404.8z M301,402.1c0.1-2.3,1.2-4.4,3.1-6.2
			c2.3-2.3,5.4-3.6,8.2-3.6c2.3,0,4.4,0.8,5.9,2.3c1.8,1.8,2.5,4.3,2.3,6.9l-0.1,0.1l-3.9,3.8h-12.8
			C303.3,404,302.3,402.8,301,402.1z M301.5,405.4h-6.6c0.1-0.4,0.4-0.7,0.7-1c0.7-0.7,1.6-1.1,2.6-1.1
			C299.7,403.4,300.9,404.2,301.5,405.4z M321.8,403.1L321.8,403.1L321.8,403.1c0.7,0.6,1.1,1.6,1.2,2.4h-3.6L321.8,403.1z
			 M325.6,395.3c-1.1-0.4-2.2-0.6-3.3-0.6c-0.1,0-0.2,0-0.4,0l1.7-1.7C324.5,393.5,325.2,394.3,325.6,395.3z M323.6,388.1
			c0.2-0.2,0.4-0.5,0.2-0.8c0-0.2-0.1-0.6-0.4-0.7l-0.1-0.1c-0.6-0.6-0.6-1.6,0-2.2c0.2-0.2,0.7-0.5,1.1-0.5s0.8,0.1,1.1,0.5
			c0.4,0.4,0.5,0.8,0.5,1.3c0,0.4,0,0.6,0.2,0.8c0.2,0.2,0.6,0.4,0.8,0.2c0.1,0,0.1,0,0.2,0c0.4,0,0.8,0.1,1.1,0.5
			c0.6,0.6,0.6,1.6,0,2.2c-0.2,0.2-0.7,0.5-1.1,0.5s-0.8-0.1-1.1-0.5l-0.1-0.1c-0.1-0.2-0.5-0.4-0.7-0.4s-0.6,0.1-0.8,0.2l-4.4,4.4
			c-0.1-0.2-0.4-0.4-0.5-0.6c-0.1-0.1-0.4-0.4-0.6-0.5L323.6,388.1z M301.2,383.3c1.4-1.4,3.6-2.3,5.9-2.3c3,0,6,1.3,8.2,3.6
			c1.8,1.8,2.7,3.7,3,5.9l-1.1,1.1c-1.6-0.8-3.2-1.2-5-1.2c-0.5,0-0.8,0-1.3,0.1c0.2-0.4,0.2-1-0.1-1.2l-0.1-0.1
			c-0.4-0.4-1.1-0.4-1.4,0c-0.4,0.4-0.4,1.1,0,1.4l0.1,0.1c0,0,0,0,0.1,0.1c-0.4,0.1-0.7,0.2-1.1,0.4c-1.8-2-4.5-3.3-7.5-3.3
			c-0.6,0-1.3,0.1-1.9,0.1C299.3,386.1,300,384.5,301.2,383.3z M301,389.5c2.2,0,4.1,0.8,5.5,2.2c-0.7,0.4-1.4,0.8-2,1.3
			c-0.1-0.1-0.4-0.2-0.6-0.2h-0.1l0,0c-0.6,0-1,0.5-1,1c0,0.2,0.1,0.5,0.2,0.6l-0.1,0.1c-2,2-3.3,4.4-3.6,7.1
			c-0.2,0-0.6-0.1-0.8-0.1l0,0c-1.3,0-2.5,0.5-3.5,1.2c-1.1-1.4-1.8-3.1-1.8-5C292.9,393.1,296.6,389.5,301,389.5z M287.2,397.7
			c0.6-0.6,1.3-0.8,2.2-0.8c0.6,0,1.1,0.1,1.6,0.4c0,0.1,0,0.2,0,0.4c0,1.6,0.4,3.1,1.1,4.4v0.1c0,0.4,0.2,0.7,0.6,1
			c0.2,0.4,0.5,0.7,0.8,1.1c-0.2,0.5-0.5,0.8-0.6,1.3h-3.2c0.4-0.1,0.6-0.5,0.6-1c0-0.6-0.5-1-1-1h-0.1c-0.6,0-1,0.5-1,1
			c0,0.4,0.2,0.7,0.6,1h-9c0.1-0.1,0.1-0.2,0.2-0.2L287.2,397.7z M280.3,399.1c0.7-0.7,1.7-1.1,2.6-1.1c0.4,0,0.6,0,1,0.1l-4.5,4.5
			c-0.1-0.4-0.1-0.6-0.1-1C279.2,400.8,279.6,399.8,280.3,399.1z M328.8,415.7h-9.6c-0.6,0-1,0.5-1,1c0,0.6,0.5,1,1,1h9.6
			c0,0,0,0,0.1,0v1.3c0,0.2-0.1,0.4-0.4,0.4h-45.2c-0.2,0-0.4-0.1-0.4-0.4v-1.3c0,0,0,0,0.1,0h31c0.6,0,1-0.5,1-1c0-0.6-0.5-1-1-1
			h-31c-4.4,0-8-3.6-8-8c0-0.1,0.1-0.4,0.4-0.4h61.1c0.1,0,0.4,0.1,0.4,0.4C336.8,412.1,333.3,415.7,328.8,415.7z"/>
	</g>
</g>
</svg>
