<?xml version="1.0" encoding="utf-8"?>
<!-- Generator: Adobe Illustrator 18.0.0, SVG Export Plug-In . SVG Version: 6.00 Build 0)  -->
<!DOCTYPE svg PUBLIC "-//W3C//DTD SVG 1.1//EN" "http://www.w3.org/Graphics/SVG/1.1/DTD/svg11.dtd">
<svg version="1.1" id="Capa_1" xmlns="http://www.w3.org/2000/svg" xmlns:xlink="http://www.w3.org/1999/xlink" x="0px" y="0px"
	 viewBox="101.4 -18.3 309.3 309.3" enable-background="new 101.4 -18.3 309.3 309.3" xml:space="preserve">
<g>
	<path fill="#FFFFFF" d="M392.1,157.4c15.2-26.4,21.1-53.1,17.5-79.5c-3.3-23.8-12.6-42.9-27.7-56.7C368.7,9.2,351.7,1.9,332.8,0.3
		c-17.8-1.5-36.1,2.2-51.3,10.6c-10.7,5.9-19.4,13.8-25.5,23c-6.1-9.2-14.8-17.2-25.5-23c-15.2-8.3-33.4-12.1-51.3-10.6
		c-18.9,1.6-35.9,8.8-49.1,20.9c-15.1,13.8-24.4,32.9-27.7,56.7c-3.3,24.4,1.5,49.3,14.4,73.8c10.4,19.7,26,39.3,46.4,58.3
		c3,2.8,7.8,2.6,10.6-0.4c2.8-3,2.6-7.8-0.4-10.6c-42.6-39.6-61.5-79.7-56.2-119.1c5.1-37.6,28.8-61.7,63.2-64.6
		c31.4-2.6,60.7,13.8,68.4,38.1c1,3.1,3.9,5.3,7.2,5.3c3.2,0,6.2-2.2,7.2-5.3c7.6-24.4,37-40.8,68.4-38.1
		c34.4,2.9,58.1,27.1,63.2,64.6c3.1,22.9-2.1,46.4-15.6,69.8c-11,19.2-27.6,38.3-49.2,57c-31,26.8-63.7,44.7-74,50.1
		c-8.7-4.6-33.7-18.2-60.1-38.7c-3.3-2.5-8-2-10.5,1.3c-2.5,3.3-2,8,1.3,10.5c33.8,26.3,64.7,41.4,66,42.1c2.1,1,4.5,1,6.6,0
		c1.7-0.8,41.6-20.4,80.2-53.7C362.5,198.5,380.1,178,392.1,157.4z"/>
	<path fill="#FFFFFF" d="M197.5,125c8,0,14.6-6.5,14.6-14.6c0-8-6.5-14.6-14.6-14.6c-8,0-14.6,6.5-14.6,14.6
		C182.9,118.4,189.5,125,197.5,125z"/>
	<path fill="#FFFFFF" d="M329.1,110.4c0-8-6.5-14.6-14.6-14.6c-8,0-14.6,6.5-14.6,14.6s6.5,14.6,14.6,14.6
		C322.5,125,329.1,118.4,329.1,110.4z"/>
	<path fill="#FFFFFF" d="M256,159.8c14.7,0,27.5-9.4,31.9-23.4c1.2-4-1-8.2-4.9-9.4c-4-1.2-8.2,1-9.4,4.9
		c-2.4,7.7-9.5,12.9-17.6,12.9c-8.1,0-15.1-5.2-17.6-12.9c-1.2-4-5.5-6.2-9.4-4.9c-4,1.2-6.2,5.5-4.9,9.4
		C228.5,150.4,241.3,159.8,256,159.8z"/>
</g>
</svg>
