<?xml version="1.0" encoding="utf-8"?>
<!-- Generator: Adobe Illustrator 18.0.0, SVG Export Plug-In . SVG Version: 6.00 Build 0)  -->
<!DOCTYPE svg PUBLIC "-//W3C//DTD SVG 1.1//EN" "http://www.w3.org/Graphics/SVG/1.1/DTD/svg11.dtd">
<svg version="1.1" id="Layer_1" xmlns="http://www.w3.org/2000/svg" xmlns:xlink="http://www.w3.org/1999/xlink" x="0px" y="0px"
	 viewBox="276.6 366.6 58.8 58.8" enable-background="new 276.6 366.6 58.8 58.8" xml:space="preserve">
<g>
	<path fill="#FFFFFF" d="M316.1,380h-20.2c-3.2,0-5.9,2.7-5.9,5.9v20.2c0,3.2,2.7,5.9,5.9,5.9h20.2c3.2,0,5.9-2.7,5.9-5.9v-20.2
		C322,382.7,319.3,380,316.1,380z M306,406.4c-5.7,0-10.4-4.7-10.4-10.4c0-5.7,4.7-10.4,10.4-10.4c5.7,0,10.4,4.7,10.4,10.4
		C316.4,401.7,311.7,406.4,306,406.4z M316.8,387.8c-1.3,0-2.5-1.2-2.5-2.5s1.2-2.5,2.5-2.5s2.5,1.2,2.5,2.5
		C319.3,386.6,318.3,387.8,316.8,387.8z"/>
	<path fill="#FFFFFF" d="M306,389.9c-3.4,0-6.1,2.7-6.1,6.1s2.7,6.1,6.1,6.1s6.1-2.7,6.1-6.1S309.4,389.9,306,389.9z"/>
	<path fill="#FFFFFF" d="M276.6,377.5v37c0,6.1,4.9,10.9,10.9,10.9h37c6.1,0,10.9-4.9,10.9-10.9v-37c0-6.1-4.9-10.9-10.9-10.9h-37
		C281.5,366.6,276.6,371.5,276.6,377.5z M326.3,406.1c0,5.7-4.5,10.3-10.3,10.3h-20.2c-5.7,0-10.3-4.5-10.3-10.3v-20.2
		c0-5.7,4.5-10.3,10.3-10.3h20.2c5.7,0,10.3,4.5,10.3,10.3V406.1z"/>
</g>
</svg>
