<?xml version="1.0" encoding="utf-8"?>
<!-- Generator: Adobe Illustrator 18.0.0, SVG Export Plug-In . SVG Version: 6.00 Build 0)  -->
<!DOCTYPE svg PUBLIC "-//W3C//DTD SVG 1.1//EN" "http://www.w3.org/Graphics/SVG/1.1/DTD/svg11.dtd">
<svg version="1.1" id="Capa_1" xmlns="http://www.w3.org/2000/svg" xmlns:xlink="http://www.w3.org/1999/xlink" x="0px" y="0px"
	 viewBox="0 0 410.3 420" enable-background="new 0 0 410.3 420" xml:space="preserve">
<g>
	<g>
		<path fill="#f98321" d="M205.8,0C113.2,0,38,75.2,38,167.8c0,9.8,1.1,22.9,3.3,32.7c0,0,0,1.1,1.1,5.4
			c3.3,10.9,6.5,22.9,10.9,33.8c18.5,41.4,58.8,107.9,144.9,177.6c1.1,1.1,5.4,3.3,6.5,3.3c1.1,0,5.4-1.1,6.5-3.3
			c87.2-69.7,127.5-135.1,144.9-177.6c5.4-9.8,8.7-22.9,10.9-33.8c0-3.3,1.1-5.4,1.1-5.4c1.1-9.8,3.3-22.9,3.3-32.7
			C373.6,75.2,298.5,0,205.8,0z M348.6,195.1C348.6,195.1,347.5,195.1,348.6,195.1c0,1.1,0,1.1-1.1,5.4l0,0
			c-1.1,9.8-5.4,19.6-9.8,28.3l0,0c-16.3,39.2-51.2,99.2-131.9,162.4C127.4,325.8,91.4,267,74,228.8l0,0c-5.4-8.7-6.5-18.5-9.8-28.3
			l0,0c0-1.1,0-3.3,0-3.3l0,0c-1.1-8.7-3.3-18.5-3.3-26.2c0-78.5,65.4-143.8,143.8-143.8s143.8,65.4,143.8,143.8
			C349.7,176.5,349.7,185.3,348.6,195.1z"/>
		<path fill="#f98321" d="M205.8,64.3c-58.8,0-107.9,49-107.9,107.9s49,107.9,107.9,107.9s107.9-49,107.9-107.9
			C313.7,110.1,264.7,64.3,205.8,64.3z M205.8,252.8c-44.7,0-82.8-36-82.8-82.8c0-44.7,36-82.8,82.8-82.8c44.7,0,82.8,36,82.8,82.8
			S250.5,252.8,205.8,252.8z"/>
	</g>
</g>
</svg>
