<?xml version="1.0" encoding="utf-8"?>
<!-- Generator: Adobe Illustrator 18.0.0, SVG Export Plug-In . SVG Version: 6.00 Build 0)  -->
<!DOCTYPE svg PUBLIC "-//W3C//DTD SVG 1.1//EN" "http://www.w3.org/Graphics/SVG/1.1/DTD/svg11.dtd">
<svg version="1.1" id="Layer_1" xmlns="http://www.w3.org/2000/svg" xmlns:xlink="http://www.w3.org/1999/xlink" x="0px" y="0px"
	 viewBox="271 361 70 70" enable-background="new 271 361 70 70" xml:space="preserve">
<g>
	<g>
		<path fill="#FF8200" d="M313.8,390h-2.2c-0.6,0-1,0.5-1,1c0,0.6,0.5,1,1,1h2.2c0.6,0,1-0.5,1-1C314.8,390.5,314.4,390,313.8,390z"
			/>
	</g>
</g>
<g>
	<g>
		<path fill="#FF8200" d="M308.6,390h-0.8c-0.6,0-1,0.5-1,1c0,0.6,0.5,1,1,1h0.8c0.6,0,1-0.5,1-1C309.6,390.5,309.1,390,308.6,390z"
			/>
	</g>
</g>
<g>
	<g>
		<path fill="#FF8200" d="M336.4,405.9h-6.6c-0.2-2-2-3.6-4.1-3.6c-0.6,0-1.2,0.1-1.7,0.4c-0.7-0.5-1.6-0.8-2.5-0.8
			c-0.2,0-0.5,0-0.7,0l-0.8-2.7c-0.1-0.5-0.7-0.8-1.2-0.7s-0.8,0.7-0.7,1.2l0.8,3c-1,0.7-1.6,1.9-1.6,3.1h-14.6c-0.6,0-1,0.5-1,1
			s0.5,1,1,1h33.5c0.2,0,0.5,0.2,0.5,0.5v0.8c0,0.2-0.2,0.5-0.5,0.5h-15.7c-0.6,0-1,0.5-1,1s0.5,1,1,1h7.5c-0.7,1.4-2.2,2.3-3.7,2.3
			h-37.1c-1.7,0-3-1-3.7-2.3h32.2c0.6,0,1-0.5,1-1s-0.5-1-1-1h-40.3c-0.2,0-0.5-0.2-0.5-0.5v-0.8c0-0.2,0.2-0.5,0.5-0.5h22.4
			c0.6,0,1-0.5,1-1s-0.5-1-1-1h-3.1c0-1.4-0.7-2.6-1.8-3.3l2.3-7.5h11.5v0.6c0,1.6,1.2,2.7,2.7,2.7c0.4,0,0.6,0,0.8-0.1
			c0.5,1,1.4,1.7,2.5,1.7c1.6,0,2.7-1.2,2.7-2.7v-2.2h1l0.5,1.7c0.1,0.5,0.7,0.8,1.2,0.7c0.5-0.1,0.8-0.7,0.7-1.2l-2-6.9
			c-0.2-0.7-0.7-1.3-1.3-1.6c0.2-0.7,0.4-1.4,0.4-2.3c0-3.8-2.6-7.1-5.9-7.1c-1.8,0-3.5,1.1-4.5,2.6c0-1-0.5-2-1.4-3.1
			c-1.3-1.3-3-2-4.8-2c-1.3,0-3.1,0.2-3.6,1.8c-0.8,2.4-0.2,5,1.6,6.8c-0.4,0.6-0.6,1.4-0.6,2.3c0,0.2,0,0.5,0,0.7
			c-0.8,0.2-1.6,0.8-1.8,1.7l-3.8,12.7c-0.1,0-0.2,0-0.4,0c-1.1,0-2.2,0.5-2.9,1.2c-0.5-0.2-1.1-0.4-1.8-0.4c-2,0-3.6,1.4-4.1,3.2
			h-6.5c-1.3,0-2.5,1.1-2.5,2.5v0.8c0,1.4,1.1,2.5,2.5,2.5h6c0.8,2.5,3.1,4.3,5.9,4.3h37.1c2.7,0,5.1-1.8,5.9-4.3h6
			c1.3,0,2.5-1.1,2.5-2.5v-0.8C338.9,407,337.8,405.9,336.4,405.9z M319.5,405.9c0-1.1,1-2,2.2-2c1.1,0,2,0.8,2.2,2H319.5z
			 M325.7,405.9L325.7,405.9c0-0.6-0.1-1.1-0.4-1.6c0.1,0,0.2,0,0.4,0c1,0,1.8,0.7,2,1.6H325.7z M309.3,380.5
			c-0.4,0.7,0.2,1.4,1,1.4c0.7,0,1.3-0.6,1.1-1.3c0.6,0.2,1.1,0.6,1.6,1.2c-0.6,0.2-0.8,1-0.6,1.4s1,0.6,1.4,0.4
			c0.1,0.4,0.2,0.8,0.2,1.3c-0.6-0.1-1.3,0.2-1.4,1c0,0.4,0.1,0.7,0.4,0.8c0.2,0.1,0.5,0.2,0.8,0.2c0,0.2-0.1,0.4-0.1,0.6h-3.7
			c0-0.2,0-0.4,0-0.6c0-0.5-0.1-1.1-0.2-1.4c0.7,0.2,1.6-0.1,1.6-0.8c0-0.4-0.1-0.7-0.5-1c-0.2-0.1-0.6-0.2-1-0.1
			c-0.4,0.1-0.7,0.5-0.7,0.8c-0.2-0.4-0.6-0.7-1-1c0.1-0.1,0.2-0.4,0.2-0.6c0-0.5-0.4-1-0.8-1C308,381.2,308.6,380.7,309.3,380.5z
			 M306,384.6c1.2,0,2.2,1,2.2,2.2c0,0.2,0,0.5-0.1,0.6H304c-0.1-0.2-0.1-0.4-0.1-0.6C303.8,385.6,304.8,384.6,306,384.6z
			 M297.8,378.3C297.8,378.3,297.8,378.2,297.8,378.3C297.9,378.2,297.9,378.2,297.8,378.3c0.6-0.2,1.1-0.4,1.7-0.4
			c1.3,0,2.5,0.5,3.3,1.4c0.8,0.8,1.1,1.7,0.6,3.1l-2-2c-0.4-0.4-1.1-0.4-1.4,0c-0.4,0.4-0.4,1.1,0,1.4l0.8,0.8
			c-0.7,0-1.3,0.2-1.9,0.5C297.6,381.9,297.2,380,297.8,378.3z M301.9,387.4h-3.1c-0.1-0.2-0.1-0.4-0.1-0.6c0-1.2,1-2.2,2.2-2.2
			c0.5,0,1.1,0.2,1.4,0.5c-0.2,0.5-0.4,1.1-0.4,1.6C301.9,386.9,301.9,387.2,301.9,387.4z M296.8,389.8c0.1-0.2,0.2-0.4,0.5-0.4
			h17.5c0.2,0,0.4,0.1,0.5,0.4l1,3.3h-1.4c-0.6,0-1,0.5-1,1v3.1c0,0.5-0.4,0.8-0.7,0.8c-0.5,0-0.7-0.4-0.7-0.8v-0.7
			c0-0.5-0.4-0.8-0.8-1c-0.5-0.1-1,0.1-1.1,0.6c-0.1,0.2-0.4,0.5-0.7,0.5c-0.5,0-0.7-0.4-0.7-0.8v-1.7c0-0.6-0.5-1-1-1h-12
			L296.8,389.8z M290.7,403.9c1.1,0,2,0.8,2.2,2h-4.2C288.7,404.7,289.6,403.9,290.7,403.9z M286.2,404.6c0.2,0,0.5,0,0.7,0.1
			c-0.1,0.4-0.2,0.7-0.2,1.2h-2.4C284.5,405.1,285.3,404.6,286.2,404.6z"/>
	</g>
</g>
</svg>
