<?xml version="1.0" encoding="utf-8"?>
<!-- Generator: Adobe Illustrator 18.0.0, SVG Export Plug-In . SVG Version: 6.00 Build 0)  -->
<!DOCTYPE svg PUBLIC "-//W3C//DTD SVG 1.1//EN" "http://www.w3.org/Graphics/SVG/1.1/DTD/svg11.dtd">
<svg version="1.1" id="Layer_1" xmlns="http://www.w3.org/2000/svg" xmlns:xlink="http://www.w3.org/1999/xlink" x="0px" y="0px"
	 viewBox="287.8 377.8 36.3 36.3" enable-background="new 287.8 377.8 36.3 36.3" xml:space="preserve">
<path fill="#f98321" d="M313.2,411.2c-0.4,1.1-1.1,1.8-2,2.3c-0.8,0.5-1.9,0.6-2.9,0.2l-14.6-4.9c-1.1-0.4-1.8-1.1-2.3-2
	c-0.5-1-0.6-2-0.2-3l5.7-17.1c0.2-0.8,0.8-1.6,1.6-2l6.9-5.7c0.5-0.4,1.2-0.7,1.8-0.8s1.3,0,1.9,0.1l5.3,1.8
	c0.7,0.2,1.3,0.6,1.7,1.2c0.5,0.5,0.7,1.2,1,1.9l2,8.8c0.1,0.4,0.1,0.7,0.1,1.2c0,0.4-0.1,0.8-0.2,1.2l-1,2.7
	c0.6,0.2,1.2,0.4,1.9,0.5c0.4,0.1,0.6,0.5,0.5,0.8c-0.1,0.4-0.5,0.6-0.8,0.5c-0.7-0.1-1.4-0.4-2-0.6L313.2,411.2z M301.6,402.6
	c0-0.4-0.1-0.6-0.5-0.7l-3.7-1.2c-0.4-0.1-0.7,0.1-0.8,0.5s0.1,0.7,0.5,0.8l3.6,1.2c0.1,0,0.1,0,0.2,0
	C301.2,403.3,301.6,402.9,301.6,402.6z M306.4,403.6c-0.5-0.1-1,0.2-1,0.7c0,0.4,0.1,0.6,0.5,0.6l0,0l3.6,1.2
	c0.4,0.1,0.7-0.1,0.8-0.5s-0.1-0.7-0.5-0.8L306.4,403.6z M303.5,402.7c-0.4,0-0.7,0.4-0.7,0.7c0,0.4,0.4,0.7,0.7,0.7
	c0.4,0,0.7-0.4,0.7-0.7C304.2,403.1,303.8,402.7,303.5,402.7z M308.4,386.8c0-0.4,0.4-0.7,0.7-0.7c0.4,0,0.7,0.4,0.7,0.7
	c0,0,0,0.8,0.2,2.2c0,0,0,0,0.1,0c0.6-0.2,1-0.7,1.2-1.3c0.2-0.6,0.1-1.3-0.1-1.8c-0.2-0.6-0.7-1-1.3-1.2c-0.6-0.2-1.3-0.1-1.8,0.1
	c-0.6,0.2-1,0.7-1.2,1.3c-0.2,0.6-0.1,1.3,0.1,1.8c0.2,0.6,0.7,1,1.3,1.2c0.1,0,0.2,0.1,0.4,0.1
	C308.4,387.8,308.4,386.8,308.4,386.8z M310.5,390.3c0.8,2,2.5,4.4,6.1,6.1l1-2.6c0.1-0.2,0.1-0.5,0.1-0.7s0-0.5-0.1-0.7l-2-8.8
	c-0.1-0.5-0.2-0.8-0.6-1.2c-0.2-0.4-0.7-0.6-1.1-0.7l-5.3-1.8c-0.4-0.1-0.8-0.1-1.2-0.1c-0.1,0-0.8,0.4-1.1,0.5l-7.1,5.9
	c-0.5,0.4-0.8,0.8-1.1,1.3l-5.7,17.1c-0.2,0.7-0.1,1.3,0.1,1.9c0.2,0.6,0.8,1.1,1.4,1.3l14.5,4.9c0.7,0.2,1.3,0.1,1.9-0.1
	s1.1-0.8,1.3-1.4l4.4-13.1c-4.3-1.8-6.2-4.8-7.1-7.2c-1.4,0-2.7-0.8-3.3-2.2c-1-1.9-0.1-4.1,1.7-5c1.9-1,4.1-0.1,5,1.7
	c0.5,0.8,0.5,1.9,0.2,2.9c-0.4,1-1.1,1.8-1.9,2.2C310.7,390.3,310.7,390.3,310.5,390.3z M299.5,394.4l12.6,4.2
	c0.4,0.1,0.7-0.1,0.8-0.5c0.1-0.4-0.1-0.7-0.5-0.8l-12.6-4.2c-0.4-0.1-0.7,0.1-0.8,0.5S299.2,394.3,299.5,394.4z M298.4,398.2
	l12.6,4.2c0.4,0.1,0.7-0.1,0.8-0.5s-0.1-0.7-0.5-0.8l-12.6-4.2c-0.4-0.1-0.7,0.1-0.8,0.5S298,398,298.4,398.2z"/>
</svg>
