<?xml version="1.0" encoding="utf-8"?>
<!-- Generator: Adobe Illustrator 18.0.0, SVG Export Plug-In . SVG Version: 6.00 Build 0)  -->
<!DOCTYPE svg PUBLIC "-//W3C//DTD SVG 1.1//EN" "http://www.w3.org/Graphics/SVG/1.1/DTD/svg11.dtd">
<svg version="1.1" id="Layer_1" xmlns="http://www.w3.org/2000/svg" xmlns:xlink="http://www.w3.org/1999/xlink" x="0px" y="0px"
	 viewBox="271 365.5 70 70" enable-background="new 271 365.5 70 70" xml:space="preserve">
<g>
	<g>
		<path fill="#FF8200" d="M331.5,411.8c-0.5-0.4-1.2-0.2-1.4,0.2c-3.7,5.4-9.7,8.6-16.3,8.6c-0.6,0-1.1,0.5-1.1,1.1s0.5,1.1,1.1,1.1
			c7.2,0,14-3.6,18-9.6C332.2,412.7,331.9,412,331.5,411.8z"/>
	</g>
</g>
<g>
	<g>
		<path fill="#FF8200" d="M334.4,401.6c-0.6,0-1.1,0.4-1.2,1c-0.1,2-0.6,4.1-1.4,6c-0.2,0.6,0,1.2,0.6,1.4c0.1,0,0.2,0.1,0.4,0.1
			c0.5,0,0.8-0.2,1-0.7c0.8-2.2,1.4-4.3,1.6-6.6C335.5,402.2,335,401.7,334.4,401.6z"/>
	</g>
</g>
<g>
	<g>
		<path fill="#FF8200" d="M297.3,390.4h-7.6c-2,0-3.7-1.7-3.7-3.7c0-2,1.7-3.7,3.7-3.7h3.5c0.6,0,1.1-0.5,1.1-1.1s-0.5-1.1-1.1-1.1
			h-3.5c-3.2,0-5.9,2.6-5.9,5.9c0,3.2,2.6,5.9,5.9,5.9h7.6c0.6,0,1.1-0.5,1.1-1.1C298.4,390.9,297.9,390.4,297.3,390.4z"/>
	</g>
</g>
<g>
	<g>
		<path fill="#FF8200" d="M300.9,370.3h-4.7c-0.6,0-1.1,0.5-1.1,1.1s0.5,1.1,1.1,1.1h4.7c2.3,0,4.2,1.9,4.2,4.2s-1.9,4.2-4.2,4.2
			h-4.2c-0.6,0-1.1,0.5-1.1,1.1s0.5,1.1,1.1,1.1h4.2c3.5,0,6.3-2.9,6.3-6.3C307.2,373.2,304.3,370.3,300.9,370.3z"/>
	</g>
</g>
<g>
	<g>
		<path fill="#FF8200" d="M323.7,384.4h-8.5c-1.8,0-3.2-1.4-3.2-3.2s1.4-3.2,3.2-3.2h3c0.6,0,1.1-0.5,1.1-1.1s-0.5-1.1-1.1-1.1h-3
			c-3,0-5.4,2.4-5.4,5.4s2.4,5.4,5.4,5.4h8.5c1.4,0,2.5,1.1,2.5,2.5v2.4c0,0.6,0.5,1.1,1.1,1.1s1.1-0.5,1.1-1.1v-2.4
			C328.4,386.6,326.3,384.4,323.7,384.4z"/>
	</g>
</g>
<g>
	<path fill="none" d="M298.2,426.1c-1.8,0-3.6-0.2-5.4-0.6v0.8c0,1,0.8,1.8,1.8,1.8h22.7c1,0,1.8-0.8,1.8-1.8v-0.8
		c-1.7,0.4-3.5,0.6-5.4,0.6H298.2z"/>
	<path fill="#FF8200" d="M336.1,398.3h-0.2h-58.7c0,0-1.7,0-2.2,0.1c-1.1,0.4-1.9,1.4-1.9,2.6c0,6.2,2.3,12.2,6.5,16.9
		c0.4,0.5,1.1,0.5,1.6,0.1c0.5-0.4,0.5-1.1,0.1-1.6c-1.4-1.7-2.6-3.5-3.6-5.4h9.3c0.6,0,1.1-0.5,1.1-1.1s-0.5-1.1-1.1-1.1h-10.2
		c-0.4-1-0.6-1.9-0.8-3h34.2c0.6,0,1.1-0.5,1.1-1.1s-0.5-1.1-1.1-1.1h-34.5c-0.1-1-0.1-1.8-0.1-2.7c0-0.4,0.2-0.6,0.6-0.6h60.2
		c0.4,0,0.6,0.2,0.6,0.6c0,12.7-10.3,23-23,23h-15.5c-5.1,0-9.9-1.7-14-4.8c-0.5-0.4-1.2-0.2-1.6,0.2c-0.4,0.5-0.2,1.2,0.2,1.6
		c2.4,1.9,5,3.2,7.9,4.1v1.4c0,2.2,1.8,3.9,3.9,3.9h22.7c2.2,0,3.9-1.8,3.9-3.9V425c10.2-3.2,17.6-12.8,17.6-24
		C338.9,399.5,337.7,398.3,336.1,398.3z M319.1,426.4c0,1-0.8,1.8-1.8,1.8h-22.7c-1,0-1.8-0.8-1.8-1.8v-0.8c1.8,0.4,3.5,0.6,5.4,0.6
		h15.5c1.8,0,3.6-0.2,5.4-0.6V426.4z"/>
</g>
</svg>
