<?xml version="1.0" encoding="utf-8"?>
<!-- Generator: Adobe Illustrator 18.0.0, SVG Export Plug-In . SVG Version: 6.00 Build 0)  -->
<!DOCTYPE svg PUBLIC "-//W3C//DTD SVG 1.1//EN" "http://www.w3.org/Graphics/SVG/1.1/DTD/svg11.dtd">
<svg version="1.1" id="Layer_1" xmlns="http://www.w3.org/2000/svg" xmlns:xlink="http://www.w3.org/1999/xlink" x="0px" y="0px"
	 viewBox="270.9 361 70.1 70" enable-background="new 270.9 361 70.1 70" xml:space="preserve">
<g>
	<g>
		<path fill="#FF8200" d="M313.3,376.2c-2.3,0-4.1,1.8-4.1,4.1s1.8,4.1,4.1,4.1s4.1-1.8,4.1-4.1
			C317.4,378.1,315.4,376.2,313.3,376.2z M313.3,382.4c-1.2,0-2.2-1-2.2-2.2s1-2.2,2.2-2.2s2.2,1,2.2,2.2S314.5,382.4,313.3,382.4z"
			/>
	</g>
</g>
<g>
	<g>
		<path fill="#FF8200" d="M320.9,367.4l-1.9-1.9c-0.4-0.4-1-0.6-1.4-0.6s-1.1,0.2-1.4,0.6l-1.9,1.9c-0.4,0.4-0.6,1-0.6,1.4
			c0,0.6,0.2,1.1,0.6,1.4l1.9,1.9c0.4,0.4,1,0.6,1.4,0.6c0.6,0,1.1-0.2,1.4-0.6l1.9-1.9c0.4-0.4,0.6-1,0.6-1.4
			C321.5,368.4,321.3,367.9,320.9,367.4z M319.6,369l-1.9,1.9h-0.1h-0.1l-1.9-1.9v-0.1v-0.1l1.9-1.9h0.1h0.1l1.9,1.9
			C319.6,368.9,319.6,368.9,319.6,369L319.6,369z"/>
	</g>
</g>
<g>
	<g>
		<path fill="#FF8200" d="M288.4,381.5l-1.6-1.6c-0.4-0.4-0.8-0.5-1.3-0.5s-1,0.2-1.3,0.5l-1.6,1.6c-0.4,0.4-0.6,0.8-0.6,1.3
			c0,0.5,0.2,1,0.6,1.3l1.6,1.6c0.4,0.4,0.8,0.5,1.3,0.5s1-0.2,1.3-0.5l1.6-1.6c0.4-0.4,0.6-0.8,0.6-1.3S288.8,381.9,288.4,381.5z
			 M285.6,384.3l-1.4-1.4l1.4-1.4l1.4,1.4L285.6,384.3z"/>
	</g>
</g>
<g>
	<g>
		<path fill="#FF8200" d="M327.9,384.4l-1.6-1.6c-0.4-0.4-0.8-0.5-1.3-0.5s-1,0.2-1.3,0.5l-1.6,1.6c-0.4,0.4-0.6,0.8-0.6,1.3
			c0,0.5,0.2,1,0.6,1.3l1.6,1.6c0.4,0.4,0.8,0.5,1.3,0.5s1-0.2,1.3-0.5l1.6-1.6c0.4-0.4,0.6-0.8,0.6-1.3
			C328.4,385.2,328.2,384.8,327.9,384.4z M325,387.2l-1.4-1.4l1.4-1.4l1.4,1.4L325,387.2z"/>
	</g>
</g>
<g>
	<g>
		<path fill="#FF8200" d="M296,396.8l-0.1-0.1c-0.5-0.2-1.1-0.1-1.3,0.4s-0.1,1.1,0.4,1.3l0.1,0.1c0.1,0.1,0.2,0.1,0.5,0.1
			c0.4,0,0.7-0.2,0.8-0.5C296.6,397.6,296.4,397.1,296,396.8z"/>
	</g>
</g>
<g>
	<g>
		<path fill="#FF8200" d="M305.6,375.6c0-2-0.7-3.8-2.2-5.3c-1-1-2.5-1-3.5,0l-3.6,3.6c-0.4,0.4-0.4,1,0,1.3c0.4,0.4,1,0.4,1.3,0
			l3.6-3.6c0.2-0.2,0.6-0.2,0.7,0c0.1,0.1,0.4,0.4,0.5,0.5c-0.6,0.1-1,0.8-0.7,1.4c0.1,0.4,0.5,0.5,0.8,0.6c0.4,0,0.6-0.1,0.8-0.4
			c0.2,0.6,0.2,1.1,0.2,1.7c0,1.4-0.6,2.9-1.7,3.9c-1.6,1.6-3.7,1.9-5.6,1.3c0.4-0.5,0.2-1.1-0.2-1.4c-0.5-0.4-1.3-0.1-1.6,0.5
			c-0.1-0.1-0.4-0.2-0.5-0.5c-0.1-0.1-0.1-0.2-0.1-0.4c0-0.1,0-0.2,0.1-0.4l0.8-0.8c0.4-0.4,0.4-1,0-1.3c-0.4-0.4-1-0.4-1.3,0
			l-0.8,0.8c-0.5,0.5-0.7,1.1-0.7,1.7s0.2,1.2,0.7,1.7c1.4,1.4,3.3,2.2,5.3,2.2c-0.5,0-1,0,0,0c1,0,0.5,0,0,0c1.9,0,3.8-0.7,5.3-2.2
			C304.8,379.4,305.6,377.6,305.6,375.6z"/>
	</g>
</g>
<g>
	<g>
		<path fill="#FF8200" d="M299.3,378.1L299.3,378.1c-0.5-0.5-1.1-0.5-1.4-0.1c-0.4,0.4-0.4,1,0,1.3l0.1,0.1c0.2,0.2,0.5,0.2,0.7,0.2
			c0.2,0,0.5-0.1,0.7-0.2C299.7,379.1,299.7,378.4,299.3,378.1z"/>
	</g>
</g>
<g>
	<g>
		<path fill="#FF8200" d="M301.9,375.7L301.9,375.7c-0.5-0.5-1.1-0.5-1.4-0.1c-0.4,0.4-0.4,1,0,1.3l0.1,0.1c0.2,0.2,0.5,0.2,0.7,0.2
			c0.2,0,0.5-0.1,0.7-0.2C302.3,376.8,302.3,376.2,301.9,375.7z"/>
	</g>
</g>
<g>
	<g>
		<path fill="#FF8200" d="M335.2,400.2c1.2-2,0.8-4.5-0.8-6.2c-1-1-2.3-1.6-3.7-1.6c-1,0-1.8,0.2-2.5,0.7c-0.8-0.2-1.6-0.4-2.3-0.4
			c-0.2,0-0.5,0-0.7,0c-0.4-1.2-1.1-2.3-2-3c-0.5-0.4-1.1-0.2-1.3,0.2c-0.4,0.5-0.2,1.1,0.2,1.3c0.7,0.5,1.2,1.3,1.3,2.2
			c-0.1,0.1-0.2,0.2-0.4,0.2c-0.6,0.6-1,1.3-1.1,2.2c-0.6-0.2-1.2-0.4-1.9-0.4c-0.2,0-0.5,0-0.7,0c0.1-1.4-0.2-2.7-1.1-3.6
			c-0.2-0.2-0.4-0.4-0.6-0.5c0.6-0.5,1.3-0.8,2.3-0.8c0.5,0,1-0.5,1-1c0-0.5-0.5-1-1-1c-1.7,0-3.2,0.8-4.2,2c-0.1,0-0.2,0-0.4,0
			c-0.2,0-0.5,0-0.7,0c0.1-1.4-0.2-2.7-1.1-3.6c-0.7-0.7-1.8-1.1-3-1.1c-0.7,0-1.6,0.1-2.4,0.5c-0.8-0.5-1.8-0.7-2.7-0.7
			c-1.4,0-2.9,0.6-3.9,1.7c-0.7,0.7-1.2,1.6-1.4,2.4l-4.4-4.4c-0.5-0.5-1.2-0.7-1.8-0.7c-0.7,0-1.3,0.2-1.8,0.7
			c-1.4,1.4-2.3,3.2-2.4,5.1c-0.6-0.4-1.3-0.5-2.2-0.5c-0.7,0-1.6,0.1-2.3,0.5c-0.8-0.5-1.7-0.7-2.6-0.7c-1.4,0-2.7,0.6-3.8,1.6
			c-1.7,1.7-2,4.3-0.8,6.5c-0.7,2.2-0.5,4.1,0.7,5.1c0.1,0.1,0.2,0.2,0.4,0.4l-0.8,0.8c-0.5,0.5-0.7,1.1-0.7,1.7v0.1
			c-0.2,0.1-0.5,0.4-0.6,0.5c-0.5,0.5-0.7,1.2-0.6,1.9c0.6,4.2,2.7,8,6,10.8c1.9,1.7,4.2,2.9,6.7,3.6c-0.1,0.2-0.2,0.6-0.2,0.8v1.1
			c0,1.2,1,2.2,2.2,2.2h29.6c1.2,0,2.2-1,2.2-2.2v-1.1c0-0.4-0.1-0.6-0.2-0.8c1.2-0.4,2.3-0.8,3.3-1.3c0.5-0.2,0.6-0.8,0.4-1.3
			s-0.8-0.6-1.3-0.4c-1.7,0.8-3.6,1.4-5.4,1.7h-27.7c-3.1-0.4-6-1.7-8.4-3.7c-0.6-0.5-1.2-1.1-1.7-1.7h6.6c0.5,0,1-0.5,1-1
			s-0.5-1-1-1h-8c-0.5-0.8-1-1.7-1.3-2.5h12.6c0.5,0,1-0.5,1-1s-0.5-1-1-1h-13.1c-0.1-0.5-0.2-1.1-0.4-1.7c0-0.1,0-0.4,0.1-0.4
			c0.1-0.1,0.2-0.2,0.4-0.2h54.3c0.1,0,0.4,0.1,0.4,0.2c0.1,0.1,0.1,0.2,0.1,0.4c-0.5,3.5-2.3,6.8-4.9,9.2c-0.4,0.4-0.4,1,0,1.3
			c0.4,0.4,1,0.4,1.3,0c3-2.7,4.9-6.3,5.5-10.3c0.1-0.7-0.1-1.4-0.6-1.9c-0.2-0.2-0.5-0.5-0.8-0.6c0.2-0.1,0.5-0.4,0.7-0.6
			C335.6,404.1,335.9,402.2,335.2,400.2z M290.5,423.6c0-0.1,0.1-0.4,0.4-0.4h29.6c0.1,0,0.4,0.1,0.4,0.4v1.1c0,0.1-0.1,0.4-0.4,0.4
			h-29.6c-0.1,0-0.4-0.1-0.4-0.4V423.6z M300.5,394.2c-0.1,0.5-0.2,1-0.4,1.3c-0.2,0-0.5,0.1-0.7,0.1c-0.1-0.4-0.2-0.7-0.4-1.1
			C299.5,394.6,300,394.4,300.5,394.2z M296.4,389.1l3.3,3.3c-0.4,0.2-0.8,0.4-1.3,0.4c-1.3,0-2.4-1.2-2.4-2.4
			C296.1,389.9,296.2,389.4,296.4,389.1z M293.2,386.8c0.1-0.1,0.4-0.2,0.5-0.2c0.2,0,0.4,0.1,0.5,0.2l1,1c-0.6,0.7-1,1.7-1,2.6
			c0,0.2,0,0.4,0,0.6c-0.8,0.1-1.4,0.6-1.8,1.3l-0.6,1.3c-0.2-0.7-0.5-1.4-0.5-2.3C291.3,389.5,292,388,293.2,386.8z M279.2,405.6
			L279.2,405.6c0,0,0-0.1,0.1-0.1l2.4-2.4c0.1-0.1,0.2-0.1,0.4-0.1s0.2,0,0.4,0.1l2.4,2.4l0.1,0.1H279.2L279.2,405.6z M284.1,402.3
			l-0.5-0.5c-0.5-0.5-1.1-0.7-1.7-0.7s-1.2,0.2-1.7,0.7l-0.1,0.1c-0.1-0.1-0.2-0.1-0.4-0.2c-0.7-0.7-0.7-2-0.1-3.6
			c0.1-0.2,0.1-0.6-0.1-1c-1-1.4-0.8-3.2,0.4-4.4c0.6-0.6,1.6-1,2.4-1c0.7,0,1.4,0.2,1.9,0.6c0.2,0.2,0.6,0.2,1,0.1
			c0.7-0.4,1.4-0.5,2-0.5c0.7,0,1.2,0.1,1.6,0.5c0.6,0.6,0.7,1.7,0.2,3.1c-0.1,0.4,0,0.7,0.2,1c0.2,0.2,0.5,0.2,0.7,0.2l-1.4,2.6
			c-0.2,0-0.4,0-0.6,0l-4.8-4.8c-0.4-0.4-1-0.4-1.3,0c-0.4,0.4-0.4,1,0,1.3l4.1,4.1C285.3,400.7,284.6,401.4,284.1,402.3z
			 M291.4,403.3c-0.5,0.5-0.7,1.1-0.7,1.7c0,0.2,0,0.4,0.1,0.6h-4.1c0-0.6-0.2-1.1-0.7-1.4l-0.4-0.4c0.5-1.4,1.8-2.4,3.3-2.4
			c1.2,0,2.3,0.6,2.9,1.6L291.4,403.3z M290.7,399.7l3.5-6.7c0.1-0.2,0.5-0.4,0.7-0.2c0.2,0.1,0.5,0.2,0.6,0.4
			c-0.5,0.4-0.7,1.1-0.2,1.6c0.5,0.6,1.3,0.4,1.6-0.2c0.5,0.7,0.8,1.6,1,2.5l-3.2,3.1c-0.2-0.4-0.8-0.6-1.2-0.5
			c-0.6,0.2-0.8,0.8-0.5,1.4C292.3,400.5,291.5,400.1,290.7,399.7z M297.6,405.6L297.6,405.6c1-0.5,0.5-1.9-0.5-1.9
			c-1.1,0-1.2,1.4-0.4,1.9H295c0-0.1-0.1-0.1-0.1-0.2c-0.4-0.4-1-0.4-1.3,0c-0.1,0.1-0.1,0.1-0.2,0.1c-0.1,0-0.2,0-0.4,0
			c-0.4-0.1-0.5-0.7-0.2-1l7.1-7.1c0.2-0.2,0.6-0.2,0.7,0c0.1,0.1,0.4,0.4,0.5,0.5c-0.4,0.1-0.7,0.5-0.8,0.8c-0.1,0.5,0.4,1,0.8,1.1
			c-0.2,0.6-0.4,1.3-0.4,1.9c-0.4-1-1.8-1-1.9,0.1s1.4,1.7,1.9,0.6c0,1,0.2,1.9,0.5,2.9L297.6,405.6L297.6,405.6z M303.3,405.6
			c-0.5-0.8-0.7-1.9-0.7-2.9c0-1.7,0.7-3.2,1.9-4.4c0.1-0.1,0.4-0.2,0.5-0.2c0.2,0,0.4,0.1,0.5,0.2l1,1c-0.6,0.7-1,1.7-1,2.6
			c0,1.2,0.5,2.3,1.3,3.1c0.2,0.2,0.6,0.5,1,0.7L303.3,405.6L303.3,405.6z M309.8,404.2c-0.6,0-1.3-0.2-1.8-0.7s-0.7-1.1-0.7-1.7
			c0-0.5,0.1-1,0.4-1.3l3.3,3.3C310.7,404.1,310.3,404.2,309.8,404.2z M312,405.6c0.2-0.1,0.4-0.2,0.6-0.4l0.4,0.4H312z
			 M310.3,400.4c0.4-1.2,1.4-2,2.7-2c1.2,0,2.3,0.7,2.6,1.8c-0.1,0-0.1,0.1-0.2,0.2l-2.6,2.6L310.3,400.4z M320.7,405.6L320.7,405.6
			h-5.4c-0.1-0.2-0.4-0.6-0.5-0.7l-0.5-0.5l2.6-2.5c0.2-0.2,0.7-0.2,1,0l2.9,2.7C320.9,404.8,320.9,405.2,320.7,405.6z M321.4,402.6
			l-2.3-2.3c-0.5-0.5-1.1-0.7-1.7-0.7c-0.6-1.8-2.4-3.1-4.4-3.1c-0.4,0-0.7,0-1.1,0.1l-5.6-5.6c-0.4-0.4-1-0.4-1.3,0
			c-0.4,0.4-0.4,1,0,1.3l5.1,5.1c-0.5,0.4-1,1-1.3,1.6l-0.5-0.5l0,0l-1.6-1.6c-0.5-0.5-1.2-0.7-1.8-0.7c-0.7,0-1.3,0.2-1.8,0.7
			c-0.1,0.1-0.2,0.2-0.4,0.4c-0.2-0.4-0.5-0.6-0.8-1c0-0.6,0.2-1.2,0.5-1.9c0.1-0.2,0.1-0.6-0.1-1c-1-1.4-0.8-3.5,0.5-4.7
			c0.7-0.7,1.7-1.1,2.6-1.1c0.7,0,1.4,0.2,2.2,0.6c0.2,0.2,0.6,0.2,1,0.1c0.8-0.4,1.6-0.5,2.2-0.5c0.7,0,1.3,0.2,1.7,0.6
			c0.6,0.6,0.7,1.8,0.2,3.2c-0.1,0.4,0,0.7,0.2,1c0.2,0.2,0.6,0.4,1,0.2c0.6-0.2,1.1-0.2,1.6-0.2c0.7,0,1.3,0.2,1.7,0.6
			c0.6,0.6,0.7,1.8,0.2,3.2c-0.1,0.4,0,0.7,0.2,1c0.2,0.2,0.6,0.4,1,0.2c0.6-0.2,1.1-0.2,1.6-0.2c0.7,0,1.3,0.2,1.7,0.6
			c0.4,0.4,0.6,1,0.6,1.7C322.3,400.5,322,401.6,321.4,402.6z M328.1,405.6H324c-0.1-0.2-0.1-0.5-0.1-0.7c0-1.2,1-2.2,2.2-2.2
			s2.2,1,2.2,2.2C328.2,405.1,328.2,405.3,328.1,405.6z M333.4,399.6c-0.2,0.2-0.2,0.6-0.1,1c0.6,1.6,0.6,2.7-0.1,3.5
			c-0.4,0.4-0.8,0.5-1.4,0.5c-0.5,0-1-0.1-1.4-0.2h-0.1c-0.2-1.2-1-2.2-1.9-2.7l2.9-2.7c0.4-0.4,0.4-1,0-1.3c-0.4-0.4-1-0.4-1.3,0
			l-3.6,3.6l0,0c-0.8,0-1.6,0.2-2.2,0.6c0.1-0.6,0.2-1.2,0.2-1.8c0-0.4-0.1-1.4-0.1-1.7c-0.4-1.3-0.4-2.4,0.2-3
			c0.4-0.4,0.8-0.5,1.4-0.5s1.3,0.1,2,0.5c0.2,0.1,0.6,0.1,1-0.1c0.6-0.4,1.2-0.6,1.9-0.6c1,0,1.8,0.4,2.4,1
			C334.1,396.4,334.3,398.2,333.4,399.6z"/>
	</g>
</g>
<g>
	<g>
		<path fill="#FF8200" d="M327.4,415.6c-0.4-0.4-1-0.5-1.3-0.1c-0.6,0.5-1.2,1-1.9,1.4c-0.5,0.2-0.6,0.8-0.4,1.3
			c0.1,0.4,0.5,0.5,0.8,0.5c0.1,0,0.4,0,0.5-0.1c0.8-0.5,1.6-1,2.3-1.6C327.6,416.6,327.6,416,327.4,415.6z"/>
	</g>
</g>
<g>
	<g>
		<path fill="#FF8200" d="M331.2,408.6c-0.5-0.1-1.1,0.1-1.2,0.6c-0.5,1.6-1.2,3.1-2.3,4.4c-0.4,0.4-0.2,1,0.1,1.3
			c0.1,0.1,0.4,0.2,0.6,0.2s0.6-0.1,0.7-0.4c1.2-1.6,2-3.2,2.5-5C332.1,409.3,331.7,408.7,331.2,408.6z"/>
	</g>
</g>
</svg>
