<?xml version="1.0" encoding="utf-8"?>
<!-- Generator: Adobe Illustrator 18.0.0, SVG Export Plug-In . SVG Version: 6.00 Build 0)  -->
<!DOCTYPE svg PUBLIC "-//W3C//DTD SVG 1.1//EN" "http://www.w3.org/Graphics/SVG/1.1/DTD/svg11.dtd">
<svg version="1.1" id="Shape_10_1_" xmlns="http://www.w3.org/2000/svg" xmlns:xlink="http://www.w3.org/1999/xlink" x="0px"
	 y="0px" viewBox="-41 49 694 694" enable-background="new -41 49 694 694" xml:space="preserve">
<g id="Shape_10">
	<g>
		<path fill="#FFFFFF" d="M612,721.6L462.7,347c-4.9-9.8-14.7-17.1-26.9-17.1h-44.1c44.1-26.9,73.4-73.4,73.4-124.8
			C462.7,119.4,391.7,53.3,306,53.3s-156.7,66.1-156.7,149.3c0,53.9,29.4,100.4,73.4,124.8h-46.5c-12.2,0-22,7.3-26.9,17.1L0,721.6
			c-2.4,4.9,0,12.2,7.3,14.7c2.4,0,2.4,0,4.9,0c4.9,0,9.8-2.4,12.2-7.3l146.9-367.2c2.4-7.3,9.8-9.8,17.1-9.8h120l0,0l0,0h120
			c7.3,0,12.2,4.9,17.1,9.8l146.9,367.2c2.4,4.9,7.3,7.3,12.2,7.3c2.4,0,2.4,0,4.9,0C609.6,736.3,614.4,728.9,612,721.6z M306,327.5
			c-73.4,0-132.2-56.3-132.2-124.8S232.6,77.8,306,77.8s132.2,56.3,132.2,124.8S379.4,327.5,306,327.5z"/>
	</g>
</g>
</svg>
