<?xml version="1.0" encoding="utf-8"?>
<!-- Generator: Adobe Illustrator 18.0.0, SVG Export Plug-In . SVG Version: 6.00 Build 0)  -->
<!DOCTYPE svg PUBLIC "-//W3C//DTD SVG 1.1//EN" "http://www.w3.org/Graphics/SVG/1.1/DTD/svg11.dtd">
<svg version="1.1" id="Shape_12_1_" xmlns="http://www.w3.org/2000/svg" xmlns:xlink="http://www.w3.org/1999/xlink" x="0px"
	 y="0px" viewBox="0 0 27 27" enable-background="new 0 0 27 27" xml:space="preserve">
<g id="Shape_12">
	<g>
		<path fill-rule="evenodd" clip-rule="evenodd" fill="#FFFFFF" d="M18.9,13h-5.2L9.3,6.8C9.2,6.7,9.1,6.7,9,6.7L8.5,7.1
			c-0.1,0.1-0.1,0.2,0,0.3l4.7,6.6h5.7c0.1,0,0.2-0.1,0.2-0.2v-0.6C19.1,13.1,19,13,18.9,13z M13.5,0C6.1,0,0,6.1,0,13.5
			C0,20.9,6.1,27,13.5,27C20.9,27,27,20.9,27,13.5C27,6.1,20.9,0,13.5,0z M22.8,19.4l1.3,0.7c-1,1.6-2.3,2.9-3.9,3.9l-0.7-1.3
			c-0.1-0.1-0.2-0.1-0.3-0.1L18.7,23c-0.1,0.1-0.1,0.2-0.1,0.3l0.7,1.3c-1.6,0.8-3.4,1.4-5.3,1.4v-3.8c0-0.1-0.1-0.2-0.2-0.2h-0.6
			c-0.1,0-0.2,0.1-0.2,0.2V26c-1.9-0.1-3.7-0.6-5.3-1.4l0.7-1.3c0.1-0.1,0-0.2-0.1-0.3l-0.5-0.3c-0.1-0.1-0.2,0-0.3,0.1l-0.7,1.3
			c-1.6-1-2.9-2.3-3.9-3.9l1.3-0.7c0.1-0.1,0.1-0.2,0.1-0.3l-0.3-0.5c-0.1-0.1-0.2-0.1-0.3-0.1l-1.3,0.7C1.6,17.7,1.1,15.9,1,14h3.8
			C4.9,14,5,13.9,5,13.8v-0.6C5,13.1,4.9,13,4.8,13H1c0.1-1.9,0.6-3.7,1.4-5.3l1.3,0.7c0.1,0.1,0.2,0,0.3-0.1l0.3-0.5
			c0.1-0.1,0-0.2-0.1-0.3L2.9,6.8c1-1.6,2.3-2.9,3.9-3.9l0.7,1.3c0.1,0.1,0.2,0.1,0.3,0.1l0.5-0.3c0.1-0.1,0.1-0.2,0.1-0.3L7.7,2.4
			C9.3,1.6,11.1,1.1,13,1v3.8C13,4.9,13.1,5,13.2,5h0.6C13.9,5,14,4.9,14,4.8V1c1.9,0.1,3.7,0.6,5.3,1.4l-0.7,1.3
			c-0.1,0.1,0,0.2,0.1,0.3l0.5,0.3c0.1,0.1,0.2,0,0.3-0.1l0.7-1.3c1.6,1,2.9,2.3,3.9,3.9l-1.3,0.7c-0.1,0.1-0.1,0.2-0.1,0.3L23,8.3
			c0.1,0.1,0.2,0.1,0.3,0.1l1.3-0.7c0.8,1.6,1.4,3.4,1.4,5.3h-3.8c-0.1,0-0.2,0.1-0.2,0.2v0.6c0,0.1,0.1,0.2,0.2,0.2H26
			c-0.1,1.9-0.6,3.7-1.4,5.3l-1.3-0.7c-0.1-0.1-0.2,0-0.3,0.1l-0.3,0.5C22.7,19.3,22.7,19.4,22.8,19.4z"/>
	</g>
</g>
</svg>
