<?xml version="1.0" encoding="utf-8"?>
<!-- Generator: Adobe Illustrator 18.0.0, SVG Export Plug-In . SVG Version: 6.00 Build 0)  -->
<!DOCTYPE svg PUBLIC "-//W3C//DTD SVG 1.1//EN" "http://www.w3.org/Graphics/SVG/1.1/DTD/svg11.dtd">
<svg version="1.1" id="Capa_1" xmlns="http://www.w3.org/2000/svg" xmlns:xlink="http://www.w3.org/1999/xlink" x="0px" y="0px"
	 viewBox="-448.2 -268.2 612 612" enable-background="new -448.2 -268.2 612 612" xml:space="preserve">
<g>
	<path fill="#020202" d="M48.7-268.2h-383.6c-62.8,0-113.3,50.6-113.3,113.3v385.3c0,62.8,50.6,113.3,113.3,113.3H50.4
		c62.8,0,113.3-50.6,113.3-113.3v-383.6C162-217.6,111.5-268.2,48.7-268.2z M26.1,92.7c8.7,8.7,29.7,26.1,26.1,41.8
		c-3.5,15.7-26.1,8.7-47.1,10.5c-24.4,1.7-40.1,1.7-54-10.5c-7-5.2-10.5-12.2-17.4-19.2c-7-7-14-19.2-24.4-19.2
		c-19.2,1.7-12.2,27.9-19.2,45.3C-214.6,157.2-256.4,92.7-293,30c-17.4-29.7-43.6-95.9-43.6-95.9h73.2c0,0,24.4,43.6,29.7,54
		c5.2,8.7,10.5,17.4,17.4,26.1c3.5,7,10.5,20.9,19.2,19.2c14-1.7,17.4-57.5,8.7-76.7c-3.5-7-12.2-8.7-20.9-12.2
		c3.5-19.2,83.7-22.7,95.9-8.7c19.2,20.9-12.2,80.2,12.2,97.7C-64.6,14.3-35-64.2-35-64.2h87.2c0,0-14,43.6-27.9,61
		c-8.7,10.5-34.9,36.6-34.9,54C-8.8,66.6,13.8,80.5,26.1,92.7z"/>
</g>
</svg>
