<?xml version="1.0" encoding="utf-8"?>
<!-- Generator: Adobe Illustrator 18.0.0, SVG Export Plug-In . SVG Version: 6.00 Build 0)  -->
<!DOCTYPE svg PUBLIC "-//W3C//DTD SVG 1.1//EN" "http://www.w3.org/Graphics/SVG/1.1/DTD/svg11.dtd">
<svg version="1.1" id="Capa_1" xmlns="http://www.w3.org/2000/svg" xmlns:xlink="http://www.w3.org/1999/xlink" x="0px" y="0px"
	 viewBox="0 0 410.3 420" enable-background="new 0 0 410.3 420" xml:space="preserve">
<path fill="#fbf12f" d="M388,221.8H24.1c-11.6,0-21.2,9.7-21.2,21.2v13.5c0,11.6,9.7,21.2,21.2,21.2h33.8v87.8
	c0,26.1,21.2,47.3,47.3,47.3h201.7c26.1,0,47.3-21.2,47.3-47.3v-87.8H388c11.6,0,21.2-9.7,21.2-21.2V243
	C407.3,231.4,398.6,221.8,388,221.8z M57.9,262.3H24.1c-3.9,0-6.8-3.9-6.8-6.8V242c0-3.9,3.9-6.8,6.8-6.8h33.8V262.3z M158.3,234.3
	h121.6v94.6c0,3.9-3.9,6.8-6.8,6.8c-2.9,0-6.8-3.9-6.8-6.8v-60.8c0-11.6-9.7-21.2-21.2-21.2s-21.2,9.7-21.2,21.2v33.8
	c0,3.9-3.9,6.8-6.8,6.8c-3.9,0-6.8-3.9-6.8-6.8v-47.3c0-11.6-9.7-21.2-21.2-21.2s-21.2,9.7-21.2,21.2c0,3.9-3.9,6.8-6.8,6.8
	c-3.9,0-6.8-3.9-6.8-6.8v-19.3h3.9V234.3z M340.7,362.7c0,18.3-15.4,33.8-33.8,33.8H105.2c-18.3,0-33.8-15.4-33.8-33.8V234.3h73.3
	v21.2c0,11.6,9.7,21.2,21.2,21.2s21.2-9.7,21.2-21.2c0-3.9,3.9-6.8,6.8-6.8c3.9,0,6.8,3.9,6.8,6.8v47.3c0,11.6,9.7,21.2,19.3,21.2
	c11.6,0,21.2-9.7,21.2-21.2v-33.8c0-3.9,3.9-6.8,6.8-6.8c3.9,0,6.8,3.9,6.8,6.8v60.8c0,11.6,9.7,21.2,21.2,21.2
	c11.6,0,21.2-9.7,21.2-21.2v-94.6h47.3v127.4H340.7z M393.8,255.5c0,3.9-3.9,6.8-6.8,6.8h-33.8v-26.1H387c3.9,0,6.8,3.9,6.8,6.8
	V255.5z"/>
<path fill="#fbf12f" d="M98.5,362.7v-33.8H84.9v33.8c0,11.6,9.7,21.2,21.2,21.2l0,0h21.2v-13.5h-21.2
	C100.4,369.4,98.5,366.5,98.5,362.7z"/>
<path fill="#fbf12f" d="M139,369.4h13.5v13.5H139V369.4z"/>
<path fill="#fbf12f" d="M300.2,151.3c4.8,0,7.7-1.9,11.6-5.8l19.3-19.3l73.3-59.8c1.9-1.9,3.9-6.8,1-9.7l0,0L358.1,9.4
	c-1.9-1.9-6.8-1.9-9.7,0l0,0l-59.8,73.3l-19.3,19.3c-5.8,4.8-7.7,13.5-3.9,19.3c1,1,1.9,1.9,3.9,3.9l21.2,21.2
	C290.5,149.4,295.3,151.3,300.2,151.3L300.2,151.3z M354.2,23.9l36.7,36.7l-63.7,52.1l-25.1-25.1L354.2,23.9z M277,115.6
	c-1-1-1-1-1.9-1.9c0-1,1-1,1.9-1.9l15.4-15.4l24.1,24.1l-15.4,15.4c-1,1-1,1-1.9,1.9c-1,0-1-1-1.9-1.9l-5.8-5.8l11.6-11.6l-9.7-9.7
	l-11.6,11.6L277,115.6z"/>
<path fill="#fbf12f" d="M246.1,141.7h13.5v13.5h-13.5V141.7z"/>
<path fill="#fbf12f" d="M266.4,167.7h13.5v13.5h-13.5V167.7z"/>
<path fill="#fbf12f" d="M239.4,194.7h13.5v13.5h-13.5V194.7z"/>
<path fill="#fbf12f" d="M219.1,167.7h13.5v13.5h-13.5V167.7z"/>
<path fill="#fbf12f" d="M123.6,82.8L63.7,9.4c-1.9-1.9-6.8-3.9-9.7-1l0,0L6.8,55.8c-1.9,1.9-1.9,6.8,0,9.7l0,0L29,83.8l52.1,42.5
	l19.3,19.3c1.9,3.9,6.8,5.8,11.6,5.8s7.7-1.9,11.6-5.8l21.2-21.2c5.8-4.8,7.7-13.5,3.9-19.3c-1-1-1.9-1.9-3.9-3.9L123.6,82.8z
	 M21.2,59.6L57.9,23l9.7,11.6L32.8,69.3L21.2,59.6z M42.5,78l31.8-31.8l16.4,19.3l-29,29L42.5,78z M71.4,102.1l28-28l9.7,11.6
	L84,110.8L71.4,102.1z M134.2,115.6l-21.2,21.2c-1,1-1,1-1.9,1.9c-1,0-1-1-1.9-1.9l-15.4-15.4l24.1-24.1l15.4,15.4c1,1,1,1,1.9,1.9
	C135.1,114.6,134.2,115.6,134.2,115.6L134.2,115.6z"/>
<path fill="#fbf12f" d="M205.6,148.4c0-11.6-9.7-21.2-21.2-21.2c-11.6,0-21.2,9.7-21.2,21.2s9.7,21.2,21.2,21.2
	C195.9,167.7,205.6,159,205.6,148.4z M179.5,148.4c0-3.9,3.9-6.8,6.8-6.8c3.9,0,6.8,3.9,6.8,6.8c0,3.9-3.9,6.8-6.8,6.8
	C181.5,154.2,179.5,151.3,179.5,148.4z"/>
<path fill="#fbf12f" d="M124.5,189c0,11.6,9.7,21.2,21.2,21.2S167,200.5,167,189s-9.7-21.2-21.2-21.2l0,0
	C134.2,167.7,124.5,177.4,124.5,189z M144.8,182.2c3.9,0,6.8,3.9,6.8,6.8c0,3.9-3.9,6.8-6.8,6.8c-3.9,0-6.8-3.9-6.8-6.8
	C139,184.1,140.9,182.2,144.8,182.2z"/>
</svg>
