<?xml version="1.0" encoding="utf-8"?>
<!-- Generator: Adobe Illustrator 18.0.0, SVG Export Plug-In . SVG Version: 6.00 Build 0)  -->
<!DOCTYPE svg PUBLIC "-//W3C//DTD SVG 1.1//EN" "http://www.w3.org/Graphics/SVG/1.1/DTD/svg11.dtd">
<svg version="1.1" id="Layer_1" xmlns="http://www.w3.org/2000/svg" xmlns:xlink="http://www.w3.org/1999/xlink" x="0px" y="0px"
	 viewBox="289.4 378 36 36.2" enable-background="new 289.4 378 36 36.2" xml:space="preserve">
<path fill="#FBF12F" d="M307.4,378c0.8,0,1.4,0.7,2,1.3c0.4,0.4,0.7,0.8,0.8,0.8s0.7-0.1,1.2-0.5c0.7-0.5,1.6-0.8,2.3-0.5
	c0.8,0.2,1.1,1.1,1.3,1.9c0.1,0.5,0.4,1,0.5,1.1c0.1,0.1,0.6,0,1.2-0.1c0.8-0.1,1.7-0.2,2.3,0.2c0.6,0.5,0.6,1.4,0.6,2.2
	c0,0.5,0,1,0.1,1.2c0.1,0.1,0.6,0.2,1.2,0.4c0.8,0.1,1.7,0.2,2.2,1c0.5,0.7,0.1,1.6-0.1,2.3c-0.1,0.5-0.4,1-0.2,1.2
	c0.1,0.1,0.5,0.5,1,0.7c0.7,0.5,1.6,0.8,1.7,1.7c0.1,0.8-0.4,1.6-0.8,2.2c-0.4,0.5-0.6,0.8-0.6,1.1c0,0.2,0.4,0.6,0.6,1.1
	c0.5,0.7,1.1,1.3,0.8,2.2c-0.1,0.8-0.8,1.2-1.7,1.7c-0.5,0.2-0.8,0.5-1,0.7c-0.1,0.1,0.1,0.7,0.2,1.2c0.2,0.8,0.5,1.6,0.1,2.3
	c-0.5,0.7-1.2,0.8-2.2,1c-0.5,0.1-1,0.1-1.2,0.4c-0.1,0.1-0.1,0.6-0.1,1.2c0,0.8,0,1.7-0.6,2.2c-0.6,0.5-1.4,0.4-2.3,0.2
	c-0.5-0.1-1-0.1-1.2-0.1c-0.1,0.1-0.4,0.5-0.5,1.1c-0.2,0.8-0.6,1.6-1.3,1.9c-0.8,0.2-1.6-0.1-2.3-0.5c-0.5-0.2-0.8-0.5-1.2-0.5
	c-0.1,0-0.5,0.5-0.8,0.8c-0.6,0.6-1.2,1.3-2,1.3s-1.4-0.7-2-1.3c-0.4-0.4-0.7-0.8-0.8-0.8s-0.7,0.1-1.2,0.5
	c-0.7,0.5-1.6,0.8-2.3,0.5c-0.8-0.2-1.1-1.1-1.3-1.9c-0.1-0.5-0.4-1-0.5-1.1c-0.1-0.1-0.6,0-1.2,0.1c-0.8,0.1-1.7,0.2-2.3-0.2
	c-0.6-0.5-0.6-1.4-0.6-2.2c0-0.5,0-1-0.1-1.2c-0.1-0.1-0.6-0.2-1.2-0.4c-0.8-0.1-1.7-0.2-2.2-1c-0.5-0.7-0.1-1.6,0.1-2.3
	c0.1-0.5,0.4-1,0.2-1.2c-0.1-0.1-0.5-0.5-1-0.7c-0.7-0.5-1.6-0.8-1.7-1.7c-0.1-0.8,0.4-1.6,0.8-2.2c0.4-0.5,0.6-0.8,0.6-1.1
	c0-0.2-0.4-0.6-0.6-1.1c-0.5-0.7-1.1-1.3-0.8-2.2s0.8-1.2,1.7-1.7c0.5-0.2,0.8-0.5,1-0.7c0.1-0.2-0.1-0.7-0.2-1.2
	c-0.2-0.8-0.5-1.6-0.1-2.3c0.5-0.7,1.2-0.8,2.2-1c0.5-0.1,1-0.1,1.2-0.4c0.1-0.1,0.1-0.6,0.1-1.2c0-0.8,0-1.7,0.6-2.2
	c0.6-0.5,1.4-0.4,2.3-0.2c0.5,0.1,1,0.1,1.2,0.1c0.1-0.1,0.4-0.5,0.5-1.1c0.2-0.8,0.6-1.6,1.3-1.9c0.8-0.2,1.6,0.1,2.3,0.5
	c0.5,0.2,0.8,0.5,1.2,0.5c0.1,0,0.5-0.5,0.8-0.8C306,378.6,306.6,378,307.4,378z M316.1,387c-0.4,0-0.7,0.4-0.7,0.7
	c0,0.1,0.1,0.4,0.1,0.5l0,0l0,0l0,0c0,0,0,0,0.1,0.1c1.9,2,3,4.7,3,7.7c0,3.1-1.2,6-3.2,8c-2,2-4.9,3.2-8,3.2
	c-1.3,0-2.5-0.2-3.8-0.6c0,0,0,0-0.1,0l0,0l0,0c-0.1,0-0.1,0-0.1,0c-0.4,0-0.7,0.4-0.7,0.7s0.1,0.6,0.5,0.7c1.3,0.5,2.8,0.7,4.2,0.7
	c3.5,0,6.6-1.4,9-3.7c2.3-2.3,3.7-5.5,3.7-9c0-3.4-1.3-6.3-3.5-8.6C316.5,387.3,316.4,387,316.1,387z M314,385.3
	c-0.4,0-0.7,0.4-0.7,0.7c0,0.4,0.4,0.7,0.7,0.7c0.4,0,0.7-0.4,0.7-0.7C314.7,385.7,314.4,385.3,314,385.3z M311.7,384
	c-1.3-0.5-2.9-0.7-4.3-0.7c-3.5,0-6.6,1.4-9,3.7c-2.3,2.3-3.7,5.5-3.7,9c0,3.4,1.3,6.3,3.4,8.6c0.1,0.1,0.4,0.2,0.5,0.2
	c0.4,0,0.7-0.4,0.7-0.7c0-0.1-0.1-0.4-0.1-0.5l0,0l0,0c0,0,0,0,0-0.1c-1.9-2-3-4.7-3-7.7c0-3.1,1.2-6,3.2-8s4.9-3.2,8-3.2
	c1.3,0,2.6,0.2,3.8,0.7l0,0c0.1,0,0.1,0.1,0.2,0.1c0.4,0,0.7-0.4,0.7-0.7C312.2,384.5,312,384.1,311.7,384z M300.9,405.3
	c-0.4,0-0.7,0.4-0.7,0.7c0,0.4,0.4,0.7,0.7,0.7c0.4,0,0.7-0.4,0.7-0.7C301.6,405.6,301.2,405.3,300.9,405.3z M303.4,389.1
	c-0.8,0-1.6,0.4-2,0.8c-0.5,0.5-0.8,1.2-0.8,2c0,0.8,0.4,1.6,0.8,2c0.5,0.5,1.2,0.8,2,0.8s1.6-0.4,2-0.8c0.5-0.5,0.8-1.2,0.8-2
	c0-0.8-0.4-1.6-0.8-2C304.9,389.4,304.2,389.1,303.4,389.1z M304.4,391c-0.2-0.2-0.6-0.5-1.1-0.5c-0.5,0-0.8,0.1-1.1,0.5
	c-0.2,0.2-0.5,0.6-0.5,1.1c0,0.5,0.1,0.8,0.5,1.1c0.2,0.2,0.6,0.5,1.1,0.5c0.5,0,0.8-0.1,1.1-0.5s0.5-0.6,0.5-1.1
	C304.9,391.6,304.7,391.2,304.4,391z M311,389.4l-8.1,12.3c-0.1,0.4-0.1,0.8,0.1,1c0.4,0.1,0.8,0.1,1-0.1l8.1-12.3
	c0.1-0.4,0.1-0.8-0.1-1C311.6,389.1,311.1,389.1,311,389.4z M311.5,397.1c-0.8,0-1.6,0.4-2,0.8c-0.5,0.5-0.8,1.2-0.8,2
	s0.4,1.6,0.8,2c0.5,0.5,1.2,0.8,2,0.8c0.8,0,1.6-0.4,2-0.8c0.5-0.5,0.8-1.2,0.8-2s-0.4-1.6-0.8-2
	C313.1,397.4,312.3,397.1,311.5,397.1z M312.6,398.9c-0.2-0.2-0.6-0.5-1.1-0.5c-0.5,0-0.8,0.1-1.1,0.5c-0.2,0.2-0.5,0.6-0.5,1.1
	c0,0.5,0.1,0.8,0.5,1.1c0.2,0.2,0.6,0.5,1.1,0.5c0.5,0,0.8-0.1,1.1-0.5c0.2-0.2,0.5-0.6,0.5-1.1
	C313.1,399.6,312.8,399.2,312.6,398.9z M308.4,380.2c-0.4-0.5-0.7-0.8-1-0.8c-0.1,0-0.6,0.5-1,0.8c-0.5,0.5-1,1.2-1.7,1.2
	c-0.7,0.1-1.4-0.2-2-0.6c-0.5-0.2-1-0.5-1.1-0.5c-0.1,0.1-0.4,0.5-0.5,1.1c-0.2,0.7-0.5,1.4-1.2,1.8c-0.7,0.4-1.3,0.2-2.2,0.1
	c-0.5-0.1-1.1-0.1-1.2-0.1c-0.1,0.1-0.1,0.6-0.1,1.2c0,0.8,0,1.6-0.5,2c-0.5,0.5-1.2,0.6-1.9,0.8c-0.5,0.1-1.1,0.1-1.2,0.4
	s0.1,0.6,0.2,1.2c0.2,0.7,0.5,1.4,0.2,2.2c-0.2,0.6-0.8,1.1-1.6,1.4c-0.5,0.2-1,0.5-1,0.7c0,0.2,0.2,0.6,0.6,1.1
	c0.5,0.6,1,1.2,1,1.9s-0.5,1.3-1,1.9c-0.4,0.5-0.7,0.8-0.6,1.1c0,0.1,0.5,0.5,1,0.7c0.6,0.4,1.3,0.8,1.6,1.4c0.2,0.7,0,1.4-0.2,2.2
	c-0.1,0.5-0.4,1-0.2,1.2c0.1,0.1,0.6,0.2,1.2,0.4c0.7,0.1,1.6,0.2,1.9,0.8c0.4,0.6,0.5,1.3,0.5,2c0,0.5,0,1.1,0.1,1.2
	c0.1,0.1,0.6,0,1.2-0.1c0.7-0.1,1.6-0.2,2.2,0.1s0.8,1.1,1.2,1.8c0.1,0.5,0.4,1,0.5,1.1c0.1,0.1,0.6-0.1,1.1-0.5
	c0.7-0.4,1.3-0.7,2-0.6c0.7,0.1,1.2,0.7,1.7,1.2c0.4,0.5,0.7,0.8,1,0.8c0.1,0,0.6-0.5,1-0.8c0.5-0.5,1-1.2,1.7-1.2
	c0.7-0.1,1.4,0.2,2,0.6c0.5,0.2,1,0.5,1.1,0.5c0.1-0.1,0.4-0.5,0.5-1.1c0.2-0.7,0.5-1.4,1.2-1.8s1.3-0.2,2.2-0.1
	c0.5,0.1,1.1,0.1,1.2,0.1c0.1,0,0.1-0.6,0.1-1.2c0-0.8,0-1.6,0.5-2c0.5-0.5,1.2-0.6,1.9-0.8c0.5-0.1,1.1-0.1,1.2-0.4
	c0.1-0.1-0.1-0.6-0.2-1.2c-0.2-0.7-0.5-1.4-0.2-2.2c0.2-0.6,0.8-1.1,1.6-1.4c0.5-0.2,1-0.5,1-0.7c0-0.1-0.2-0.6-0.6-1.1
	c-0.5-0.6-1-1.2-1-1.9s0.5-1.3,1-1.9c0.4-0.5,0.7-0.8,0.6-1.1c0-0.1-0.5-0.5-1-0.7c-0.6-0.4-1.3-0.8-1.6-1.4c-0.2-0.7,0-1.4,0.2-2.2
	c0.1-0.5,0.4-1,0.2-1.2c-0.1-0.1-0.6-0.2-1.2-0.4c-0.7-0.1-1.6-0.2-1.9-0.8c-0.5-0.5-0.5-1.3-0.5-2c0-0.5,0-1.1-0.1-1.2
	c-0.1-0.1-0.6,0-1.2,0.1c-0.7,0.1-1.6,0.2-2.2-0.1c-0.6-0.4-0.8-1.1-1.2-1.8c-0.1-0.5-0.4-1-0.5-1.1c-0.1-0.1-0.6,0.1-1.1,0.5
	c-0.7,0.4-1.3,0.7-2,0.6C309.4,381.4,308.9,380.9,308.4,380.2z"/>
</svg>
