<?xml version="1.0" encoding="utf-8"?>
<!-- Generator: Adobe Illustrator 18.0.0, SVG Export Plug-In . SVG Version: 6.00 Build 0)  -->
<!DOCTYPE svg PUBLIC "-//W3C//DTD SVG 1.1//EN" "http://www.w3.org/Graphics/SVG/1.1/DTD/svg11.dtd">
<svg version="1.1" id="Capa_1" xmlns="http://www.w3.org/2000/svg" xmlns:xlink="http://www.w3.org/1999/xlink" x="0px" y="0px"
	 viewBox="192.1 282.1 227.2 227.2" enable-background="new 192.1 282.1 227.2 227.2" xml:space="preserve">
<g>
	<g>
		<path fill="#FFFFFF" d="M306,377.1c10.4,0,19.5-8.5,18.9-19.5c0-10.4-8.5-19.5-19.5-19.5s-19.5,8.5-19.5,19.5
			C286.5,368.7,295.6,377.1,306,377.1z"/>
		<path fill="#FFFFFF" d="M377,282.1H235c-24.1,0-43,19.5-43,43v141.3c0,24.1,19.5,43,43,43h141.3c24.1,0,43-19.5,43-43V325
			C419.9,301.6,400.4,282.1,377,282.1z M306,317.9c22.1,0,39.1,18.2,39.1,39.7c0,21.5-18.2,39.1-39.7,39.1s-39.1-18.2-39.1-39.7
			C266.9,335.5,284.5,317.9,306,317.9z M350.3,412.3c-4.6,5.2-10.4,8.5-16.9,11.1c-5.9,2.6-13,3.3-19.5,4.6c1.3,1.3,1.3,1.3,2,2
			c9.1,9.1,18.2,18.2,26.7,27.3c3.3,3.3,3.9,7.2,2,10.4c-2,3.9-5.9,6.5-9.8,6.5c-2.6,0-4.6-1.3-6.5-3.3
			c-6.5-6.5-13.7-13.7-20.2-20.2c-2-2-2.6-2-4.6,0c-6.5,7.2-13.7,13.7-20.8,20.8c-3.3,3.3-7.2,3.9-10.4,2c-3.9-2-6.5-5.9-5.9-9.8
			c0-2.6,1.3-4.6,3.3-6.5c9.1-9.1,17.6-17.6,26.7-26.7c0.7-0.7,1.3-1.3,2-2c-12.4-1.3-22.8-4.6-32.6-11.7c-1.3-0.7-2.6-2-3.3-2.6
			c-3.9-3.9-4.6-8.5-1.3-13c2.6-3.9,7.2-5.2,12.4-2.6c0.7,0.7,2,1.3,2.6,1.3c17.6,11.7,41,12.4,58.6,0.7c2-1.3,3.3-2.6,5.9-3.3
			c3.9-1.3,7.8,0.7,10.4,3.9C353.5,405.1,353.5,409,350.3,412.3z"/>
	</g>
</g>
</svg>
