<?xml version="1.0" encoding="utf-8"?>
<!-- Generator: Adobe Illustrator 18.0.0, SVG Export Plug-In . SVG Version: 6.00 Build 0)  -->
<!DOCTYPE svg PUBLIC "-//W3C//DTD SVG 1.1//EN" "http://www.w3.org/Graphics/SVG/1.1/DTD/svg11.dtd">
<svg version="1.1" id="Layer_1" xmlns="http://www.w3.org/2000/svg" xmlns:xlink="http://www.w3.org/1999/xlink" x="0px" y="0px"
	 viewBox="287.5 377.5 37 37" enable-background="new 287.5 377.5 37 37" xml:space="preserve">
<g>
	<path fill="#FBF12F" d="M306,377.5c-10.2,0-18.5,8.4-18.5,18.5c0,10.1,8.4,18.5,18.5,18.5c10.1,0,18.5-8.4,18.5-18.5
		C324.5,385.9,316.2,377.5,306,377.5z M306,413.3c-9.5,0-17.3-7.8-17.3-17.3c0-9.5,7.8-17.3,17.3-17.3c9.5,0,17.3,7.8,17.3,17.3
		C323.3,405.5,315.5,413.3,306,413.3z"/>
	<path fill="#FBF12F" d="M306,380.5c-8.6,0-15.5,6.9-15.5,15.5c0,8.6,6.9,15.5,15.5,15.5c8.6,0,15.5-6.9,15.5-15.5
		C321.5,387.4,314.6,380.5,306,380.5z M306,410.3c-8,0-14.3-6.4-14.3-14.3c0-8,6.4-14.3,14.3-14.3s14.3,6.4,14.3,14.3
		S313.9,410.3,306,410.3z"/>
	<path fill="#FBF12F" d="M319.1,394.6c0-0.4-0.2-0.5-0.6-0.5c-0.4,0-0.6,0.2-0.6,0.6c0,0.4,0.1,0.7,0.1,1.1s0.2,0.6,0.6,0.6
		s0.6-0.2,0.6-0.6C319.2,395.6,319.2,395.1,319.1,394.6z"/>
	<path fill="#FBF12F" d="M318.3,393.5c0.2-0.1,0.6-0.4,0.5-0.7c-1.4-5.9-6.7-10-12.7-10c-0.4,0-0.5,0.2-0.5,0.5
		c0,0.4,0.2,0.6,0.5,0.6c5.4,0,10.2,3.7,11.6,9c0.1,0.2,0.2,0.5,0.6,0.5C318.2,393.5,318.3,393.5,318.3,393.5z"/>
	<path fill="#FBF12F" d="M315.1,392.4h-6.5l-2-6.3c-0.1-0.2-0.2-0.4-0.6-0.4c-0.2,0-0.5,0.1-0.5,0.4l-2,6.3H297
		c-0.2,0-0.5,0.1-0.6,0.4s0,0.5,0.2,0.6l5.3,3.8l-2,6.3c-0.1,0.2,0,0.6,0.1,0.6c0.2,0.2,0.5,0.2,0.7,0l5.4-3.8l5.4,3.8
		c0.1,0.2,0.5,0.2,0.7,0c0.1-0.2,0.2-0.5,0.1-0.6l-2-6.3l5.3-3.8c0.2-0.1,0.2-0.5,0.2-0.6C315.7,392.5,315.5,392.4,315.1,392.4z
		 M309.1,396.6c-0.1,0.1-0.2,0.5-0.1,0.6l1.6,4.9l-4.2-3.1c-0.1-0.1-0.5-0.1-0.7,0l-4.2,3.1l1.6-4.9c0.1-0.2,0-0.5-0.1-0.6l-4.2-3.1
		h5.2c0.2,0,0.5-0.1,0.6-0.4l1.6-4.9l1.6,4.9c0.1,0.2,0.2,0.4,0.6,0.4h5.2L309.1,396.6z"/>
</g>
</svg>
