<?xml version="1.0" encoding="utf-8"?>
<!-- Generator: Adobe Illustrator 18.0.0, SVG Export Plug-In . SVG Version: 6.00 Build 0)  -->
<!DOCTYPE svg PUBLIC "-//W3C//DTD SVG 1.1//EN" "http://www.w3.org/Graphics/SVG/1.1/DTD/svg11.dtd">
<svg version="1.1" id="Capa_1" xmlns="http://www.w3.org/2000/svg" xmlns:xlink="http://www.w3.org/1999/xlink" x="0px" y="0px"
	 viewBox="0 0 410 410" enable-background="new 0 0 410 410" xml:space="preserve">
<g>
	<path fill="#fbf12f" d="M404.4,388.8l-99-100.4c27.1-31.2,43.4-71.9,43.4-114c0-96.3-77.3-173.7-173.7-173.7
		C80.2,0.8,1.5,78.1,1.5,174.4s77.3,173.7,173.7,173.7c43.4,0,84.1-16.3,114-43.4l99,100.4c2.7,2.7,6.8,4.1,8.1,4.1
		c4.1,0,6.8-2.7,8.1-4.1C409.9,401,409.9,392.9,404.4,388.8z M25.9,175.8c0-81.4,67.8-149.2,149.2-149.2s149.2,67.8,149.2,149.2
		S256.6,325,175.2,325C92.4,325,25.9,258.5,25.9,175.8z"/>
</g>
</svg>
