<?xml version="1.0" encoding="utf-8"?>
<!-- Generator: Adobe Illustrator 18.0.0, SVG Export Plug-In . SVG Version: 6.00 Build 0)  -->
<!DOCTYPE svg PUBLIC "-//W3C//DTD SVG 1.1//EN" "http://www.w3.org/Graphics/SVG/1.1/DTD/svg11.dtd">
<svg version="1.1" id="Capa_1" xmlns="http://www.w3.org/2000/svg" xmlns:xlink="http://www.w3.org/1999/xlink" x="0px" y="0px"
	 viewBox="286.7 376.7 38.6 38.6" enable-background="new 286.7 376.7 38.6 38.6" xml:space="preserve">
<g>
	<g>
		<path fill="#FFFFFF" d="M309.9,399.5c-0.6,0-1.2,0.3-1.7,1v-4h-1.7v12.4h1.7V408c0.6,0.7,1.1,1,1.7,1c0.7,0,1.1-0.3,1.3-1.1
			c0.1-0.3,0.2-1,0.2-1.9v-3.7c0-0.9-0.1-1.5-0.2-1.9C311.1,399.9,310.7,399.5,309.9,399.5z M309.8,406.2c0,0.8-0.2,1.2-0.8,1.2
			c-0.3,0-0.6-0.1-0.9-0.4v-5.6c0.2-0.2,0.6-0.4,0.9-0.4c0.4,0,0.8,0.4,0.8,1.2V406.2z"/>
		<path fill="#FFFFFF" d="M315.3,399.5c-0.9,0-1.5,0.3-2,1c-0.3,0.4-0.6,1.2-0.6,2.2v3.2c0,1,0.2,1.7,0.6,2.2c0.4,0.7,1.2,1,2,1
			c0.9,0,1.5-0.3,2-1c0.2-0.3,0.3-0.7,0.3-1c0-0.2,0-0.6,0-1.1v-0.2H316c0,0.2,0,0.3,0,0.6s0,0.3,0,0.4s0,0.1,0,0.2
			c-0.1,0.4-0.3,0.7-0.8,0.7c-0.6,0-0.9-0.4-0.9-1.3v-1.7h3.3v-1.9c0-1-0.2-1.7-0.6-2.2C316.8,399.8,316.1,399.5,315.3,399.5z
			 M316.1,403.1h-1.7v-0.9c0-0.9,0.3-1.3,0.9-1.3c0.6,0,0.9,0.4,0.9,1.3v0.9H316.1z"/>
		<path fill="#FFFFFF" d="M303.4,406.7c-0.3,0.6-0.8,0.8-1.1,0.8c-0.2,0-0.3-0.1-0.3-0.3c0,0,0-0.2,0-0.7v-6.9h-1.7v7.3
			c0,0.7,0,1.1,0.1,1.3c0.1,0.4,0.6,0.7,1.1,0.7c0.7,0,1.2-0.3,1.9-1.1v1h1.7v-9.3h-1.7L303.4,406.7L303.4,406.7L303.4,406.7z"/>
		<path fill="#FFFFFF" d="M305.6,390.2c0.6,0,0.8-0.4,0.8-1.3v-4c0-0.9-0.2-1.3-0.8-1.3c-0.6,0-0.8,0.4-0.8,1.3v4
			C304.8,389.7,305.1,390.2,305.6,390.2z"/>
		<polygon fill="#FFFFFF" points="294.2,398.3 296.2,398.3 296.2,408.9 298.1,408.9 298.1,398.3 300.1,398.3 300.1,396.5 
			294.2,396.5 		"/>
		<path fill="#FFFFFF" d="M318.1,376.7h-24.2c-2,0-3.8,0.7-5.1,2.1c-1.4,1.4-2.1,3.1-2.1,5.1v24.2c0,2,0.7,3.8,2.1,5.1
			c1.4,1.4,3.1,2.1,5.1,2.1h24.2c2,0,3.8-0.7,5.1-2.1c1.4-1.4,2.1-3.1,2.1-5.1v-24.2c0-2-0.7-3.8-2.1-5.1
			C321.8,377.4,320.1,376.7,318.1,376.7z M309.5,382.2h1.7v6.9c0,0.4,0,0.7,0,0.7c0,0.2,0.1,0.4,0.4,0.4c0.3,0,0.7-0.2,1.1-0.8v-7.1
			h1.7v9.3h-1.7v-1c-0.7,0.8-1.3,1.1-2,1.1c-0.6,0-0.9-0.2-1.1-0.7c-0.1-0.3-0.1-0.8-0.1-1.4V382.2L309.5,382.2z M303.2,385.2
			c0-1,0.2-1.7,0.6-2.2c0.4-0.7,1.1-1,2-1c0.8,0,1.4,0.3,2,1c0.3,0.4,0.6,1.2,0.6,2.2v3.3c0,1-0.2,1.8-0.6,2.2c-0.4,0.7-1.1,1-2,1
			c-0.9,0-1.5-0.3-2-1c-0.3-0.4-0.6-1.2-0.6-2.2V385.2L303.2,385.2z M298.6,379l1.3,4.9l1.3-4.9h1.9l-2.3,7.4v5.1H299v-5
			c-0.2-0.9-0.6-2.2-1.1-4c-0.1-0.3-0.3-1-0.6-1.8s-0.4-1.3-0.6-1.8L298.6,379L298.6,379z M319.3,409.4c-0.2,0.8-0.6,1.3-1.1,1.9
			c-0.6,0.6-1.2,0.8-1.9,0.9c-2.3,0.2-5.8,0.3-10.4,0.3c-4.6,0-8.1-0.1-10.4-0.3c-0.8-0.1-1.3-0.3-1.9-0.9c-0.6-0.6-0.9-1.1-1.1-1.9
			c-0.3-1.4-0.6-3.7-0.6-6.5s0.2-5.1,0.6-6.5c0.2-0.8,0.6-1.3,1.1-1.9c0.6-0.4,1.2-0.8,1.9-0.9c2.3-0.2,5.8-0.3,10.4-0.3
			c4.6,0,8.1,0.1,10.4,0.3c0.8,0.1,1.3,0.3,1.9,0.9c0.6,0.4,0.9,1.1,1.1,1.9c0.3,1.4,0.4,3.5,0.4,6.5
			C319.9,405.9,319.7,408,319.3,409.4z"/>
	</g>
</g>
</svg>
